<?xml version="1.0" standalone="no"?>
<!DOCTYPE svg PUBLIC "-//W3C//DTD SVG 1.1//EN" "http://www.w3.org/Graphics/SVG/1.1/DTD/svg11.dtd" >
<svg xmlns="http://www.w3.org/2000/svg" xmlns:xlink="http://www.w3.org/1999/xlink" version="1.1">
<metadata>
Created by FontForge 20170731 at Sun Apr  3 18:51:20 2022
 By Aleksey,,,
Copyright (c) 1989, 1990, 1999 Adobe Systems Incorporated.  All Rights Reserved.
</metadata>
<defs>
<font id="Bodoni-Book" horiz-adv-x="1024" >
  <font-face 
    font-family="Bodoni Book"
    font-weight="400"
    font-stretch="normal"
    units-per-em="2048"
    panose-1="2 2 5 0 0 0 0 0 0 0"
    ascent="1536"
    descent="-512"
    x-height="811"
    cap-height="1368"
    bbox="-342 -512 2048 1815"
    underline-thickness="102"
    underline-position="-307"
    unicode-range="U+0020-FB02"
  />
<missing-glyph horiz-adv-x="512" 
 />
    <glyph glyph-name=".notdef" horiz-adv-x="512" 
 />
    <glyph glyph-name=".null" horiz-adv-x="0" 
 />
    <glyph glyph-name="nonmarkingreturn" horiz-adv-x="682" 
 />
    <glyph glyph-name="space" unicode=" " horiz-adv-x="512" 
 />
    <glyph glyph-name="space" unicode="&#xa0;" horiz-adv-x="512" 
 />
    <glyph glyph-name="exclam" unicode="!" horiz-adv-x="569" 
d="M307 410h-45q-5 188 -28.5 387t-44.5 322.5t-21 137.5q0 57 30.5 98.5t86.5 41.5t86 -41t30 -99q0 -14 -21 -137.5t-44.5 -322.5t-28.5 -387zM281 -23q-51 0 -84 33.5t-33 85.5q0 46 36 80.5t81 34.5q46 0 85.5 -33.5t39.5 -81.5q0 -52 -37 -85.5t-88 -33.5z" />
    <glyph glyph-name="quotedbl" unicode="&#x22;" horiz-adv-x="909" 
d="M674 793h-60q-12 84 -25.5 172.5t-20 129.5t-11 80.5t-4.5 65.5q0 125 90 125t90 -125q0 -33 -6 -79t-22.5 -156.5t-30.5 -212.5zM297 793h-59q-14 101 -32 212t-24 157t-6 79q0 125 90 125t90 -125q0 -33 -6 -79t-22.5 -156.5t-30.5 -212.5z" />
    <glyph glyph-name="numbersign" unicode="#" 
d="M952 500v-107h-219l-59 -393h-115l59 393h-276l-59 -393h-115l59 393h-215v107h232l49 321h-221v107h237l60 393h114l-59 -393h276l60 393h114l-59 -393h197v-107h-213l-49 -321h202zM684 821h-276l-50 -321h277z" />
    <glyph glyph-name="dollar" unicode="$" 
d="M360 41v604q-123 42 -183 124t-60 214q0 112 69.5 202.5t173.5 123.5v188h52v-178q75 12 82 12q51 0 86 -2v168h51v-174q119 -13 195.5 -91.5t76.5 -164.5q0 -55 -28.5 -91t-79.5 -36q-43 0 -69 25t-26 71q0 31 17.5 51.5t39 27.5t39 15.5t17.5 18.5q0 34 -58.5 76
t-123.5 51v-520q138 -39 221.5 -130t83.5 -231q0 -131 -89.5 -242t-215.5 -145v-186h-51v178q-35 -11 -86 -14q-15 1 -82 6v-170h-52v176q-117 4 -204.5 91.5t-87.5 182.5q0 127 125 127q32 0 55.5 -27t23.5 -61q0 -41 -17.5 -65.5t-38.5 -31t-38.5 -16t-17.5 -24.5
q0 -40 74 -86.5t126 -46.5zM412 1274v-457l168 -49v516q-58 4 -86 4q-35 0 -82 -14zM360 836v426q-64 -23 -113.5 -87.5t-49.5 -132.5q0 -151 163 -206zM631 559v-506q93 28 153 106t60 177q0 159 -213 223zM580 573l-168 56v-596q10 -1 39.5 -3.5t46.5 -2.5q9 0 21 2
t30.5 6t30.5 6v532z" />
    <glyph glyph-name="percent" unicode="%" horiz-adv-x="1705" 
d="M1311 1376l-803 -1431h-105l715 1263l-4 4q-120 -84 -276 -84q-16 0 -47 6t-35 7v-31q0 -71 -18.5 -147.5t-55.5 -148.5t-86.5 -129t-116 -91.5t-139.5 -34.5q-106 0 -175 68.5t-69 179.5q0 81 39.5 174t101.5 169.5t145 127.5t163 51q156 0 200 -131q40 -27 97 -27
q98 0 205.5 55t173.5 150h90zM571 1266h-26q-54 0 -124 -93.5t-118.5 -218t-48.5 -209.5q0 -129 129 -129q49 0 107 41.5t106 106t80.5 150t32.5 165.5q0 43 -11 80q-33 17 -51 27.5t-41 32t-35 47.5zM1563 520q0 178 -129 178q-74 0 -153.5 -96t-128 -217t-48.5 -203
q0 -133 139 -133q81 0 158 85.5t119.5 194.5t42.5 191zM1401 762q23 0 49 -6.5t55 -23t52 -41t38 -65.5t15 -91q0 -29 -6.5 -70t-22 -93t-38 -104t-57 -102t-76.5 -88.5t-100 -62t-124 -23.5q-105 0 -172.5 66.5t-67.5 174.5q0 114 64 237t171.5 207.5t219.5 84.5z" />
    <glyph glyph-name="ampersand" unicode="&#x26;" horiz-adv-x="1478" 
d="M653 889q109 46 150 106t41 176q0 78 -42.5 129.5t-117.5 51.5q-72 0 -123 -44t-51 -118q0 -18 5 -39.5t16 -47t20 -44.5t27 -49.5t25.5 -43t27.5 -43t22 -34.5zM680 850l334 -549q173 217 182 485h-182v48h403v-48h-172q-25 -340 -205 -530l127 -209h179v-47h-373
l-70 117q-74 -65 -186 -106.5t-211 -41.5q-93 0 -168 26.5t-123 68.5t-80 99t-45.5 114.5t-13.5 117.5q0 40 11 81t39.5 88.5t72.5 91.5t116 89t164 82q-3 5 -17.5 30t-19 33t-17 31t-17.5 34t-14.5 32t-13.5 35.5t-9 33.5t-7 36.5t-2 35.5q0 87 48 150t119.5 92t154.5 29
q76 0 144.5 -28t115.5 -88t47 -140q0 -34 -11 -65t-41 -70.5t-96 -80.5t-163 -77zM877 160l-375 624q-53 -20 -90.5 -40.5t-74.5 -51.5t-56 -74t-19 -98q0 -64 25.5 -145t68 -155t106 -124.5t130.5 -50.5q79 0 144 29t141 86z" />
    <glyph glyph-name="quotesingle" unicode="'" horiz-adv-x="454" 
d="M258 793h-59q-14 101 -32 212t-24 157t-6 79q0 125 90 125t90 -125q0 -33 -6 -79t-22.5 -156.5t-30.5 -212.5z" />
    <glyph glyph-name="parenleft" unicode="(" horiz-adv-x="569" 
d="M549 -428l-27 -37q-204 183 -315 427t-111 519q0 273 111 517.5t315 428.5l27 -38q-108 -123 -139 -167q-90 -127 -123 -303q-31 -165 -31 -438q0 -142 7 -250.5t25 -191.5t36.5 -139.5t55 -113t65 -92t80.5 -95.5z" />
    <glyph glyph-name="parenright" unicode=")" horiz-adv-x="569" 
d="M47 -465l-27 37q108 123 138 166q90 126 124 302q31 165 31 441q0 169 -14 296t-29 203t-59.5 155t-70.5 112.5t-97 114.5q-15 18 -23 27l27 38q204 -184 315 -428.5t111 -517.5q0 -275 -111 -519t-315 -427z" />
    <glyph glyph-name="asterisk" unicode="*" 
d="M477 946q-54 34 -122 55t-111.5 28t-74 27.5t-30.5 59.5q0 33 20.5 54.5t51.5 21.5q28 0 58 -24.5t55 -56.5t70.5 -72t97.5 -64q0 86 -13.5 147t-27 98.5t-13.5 67.5q0 34 22 56t52 22t52 -22t22 -56q0 -30 -13.5 -67.5t-27 -98.5t-13.5 -147q52 24 97.5 64t70.5 72
t55 56.5t58 24.5q31 0 51.5 -21.5t20.5 -54.5q0 -39 -30.5 -59.5t-74 -27.5t-111.5 -28t-122 -55q54 -34 122 -55t111.5 -28t74 -27.5t30.5 -59.5q0 -33 -20.5 -54.5t-51.5 -21.5q-28 0 -58 24.5t-55 57t-70.5 72.5t-97.5 64q0 -87 13.5 -148t27 -98.5t13.5 -67.5
q0 -34 -22 -56t-52 -22t-52 22t-22 56q0 30 13.5 67.5t27 98.5t13.5 148q-52 -24 -97.5 -64t-70.5 -72.5t-55 -57t-58 -24.5q-31 0 -51.5 21.5t-20.5 54.5q0 39 30.5 59.5t74 27.5t111.5 28t122 55z" />
    <glyph glyph-name="plus" unicode="+" horiz-adv-x="1126" 
d="M504 557v438h119v-438h415v-119h-415v-438h-119v438h-416v119h416z" />
    <glyph glyph-name="comma" unicode="," horiz-adv-x="512" 
d="M176 -330l-16 35q102 84 145 145.5t43 120.5q0 58 -24 58q-4 0 -7.5 -4t-10 -12t-11.5 -13q-27 -31 -78 -31q-54 0 -82.5 30.5t-28.5 84.5q0 51 41.5 87t94.5 36q77 0 124.5 -51.5t47.5 -147.5t-69.5 -184t-168.5 -154z" />
    <glyph glyph-name="hyphen" unicode="-" horiz-adv-x="681" 
d="M592 375h-502v137h502v-137z" />
    <glyph glyph-name="hyphen" unicode="&#xad;" horiz-adv-x="681" 
d="M592 375h-502v137h502v-137z" />
    <glyph glyph-name="period" unicode="." horiz-adv-x="512" 
d="M252 -23q-51 0 -84 33t-33 84q0 45 36 79t81 34q46 0 85.5 -33.5t39.5 -79.5q0 -51 -37 -84t-88 -33z" />
    <glyph glyph-name="slash" unicode="/" horiz-adv-x="569" 
d="M451 1399h127l-461 -1430h-125z" />
    <glyph glyph-name="zero" unicode="0" 
d="M512 1300q-34 0 -59 -5t-53 -20.5t-47.5 -43.5t-38.5 -75.5t-30.5 -114t-18.5 -162.5t-7 -217q0 -169 13.5 -289t34.5 -188t56.5 -106t68.5 -48.5t81 -10.5t81 10.5t68.5 48.5t56.5 106t34.5 188t13.5 289q0 121 -7 217t-18.5 162.5t-30.5 114t-38.5 75.5t-47.5 43.5
t-53 20.5t-59 5zM512 1348q109 0 199 -61t147 -160t88 -220t31 -245q0 -125 -31 -246.5t-88 -221t-147 -160.5t-199 -61t-199 61t-147 160.5t-88 221t-31 246.5q0 124 31 245t88 220t147 160t199 61z" />
    <glyph glyph-name="one" unicode="1" 
d="M856 0h-674v47h250v1141q0 54 -34.5 70t-127.5 16h-100v47h98q117 0 350 27v-1301h238v-47z" />
    <glyph glyph-name="two" unicode="2" 
d="M913 334l-28 -334h-836v100l174 172q273 268 377.5 411.5t104.5 270.5q0 132 -84.5 229t-210.5 97q-120 0 -190 -68t-70 -139q0 -6 1 -17t1 -16q55 25 81 25q47 0 75 -32t28 -72q0 -52 -30.5 -84.5t-72.5 -32.5q-62 0 -101.5 49.5t-39.5 116.5q0 84 34 150.5t91 106.5
t127 60.5t148 20.5q76 0 150 -22.5t135.5 -64.5t99.5 -110t38 -150q0 -111 -78 -221.5t-294 -304.5l-348 -309h544q72 0 91.5 29.5t25.5 138.5h57z" />
    <glyph glyph-name="three" unicode="3" 
d="M846 1047q0 -60 -26.5 -114.5t-71 -94t-95 -68t-104.5 -45.5v-4q78 -16 139 -40.5t116.5 -65.5t85.5 -105t30 -148q0 -47 -17.5 -98t-57.5 -103.5t-96 -94t-141.5 -67.5t-185.5 -26q-97 0 -172 24.5t-116.5 63.5t-62 81t-20.5 83q0 54 37.5 92.5t89.5 38.5
q40 0 74.5 -26.5t34.5 -65.5q0 -47 -20 -70t-43.5 -25t-43.5 -10t-20 -28q0 -34 50 -62.5t104.5 -41.5t86.5 -13q163 0 235.5 93t72.5 294q0 133 -86.5 210t-237.5 77q-34 0 -70 -6t-41 -6q-61 0 -61 33q0 32 49 32q16 0 49 -5t51 -5q105 0 182.5 55.5t90.5 157.5
q10 108 10 129q0 112 -64 169.5t-173 57.5q-19 0 -43 -4t-50.5 -12t-44.5 -24t-18 -37q0 -14 13 -22.5t29 -13.5t29 -22.5t13 -46.5q0 -46 -26 -75t-70 -29q-55 0 -83 31.5t-28 89.5q0 20 8 44.5t32 55t60 55t99 41.5t143 17q93 0 178 -36t141 -106.5t56 -158.5z" />
    <glyph glyph-name="four" unicode="4" 
d="M555 1174l-477 -756h481v756h-4zM39 362v107l567 879h129v-930h183v160h47v-365h-47v149h-183v-315h148v-47h-475v47h151v315h-520z" />
    <glyph glyph-name="five" unicode="5" 
d="M305 1321h320q78 0 116 7t47 16.5t15 31.5h39q0 -94 -39 -143q-48 -64 -164 -64h-379l-22 -397q118 51 280 51q103 0 202.5 -53.5t165.5 -149t66 -204.5q0 -57 -16.5 -115.5t-55.5 -118t-95.5 -105.5t-144 -75t-194.5 -29q-89 0 -160.5 24.5t-113.5 64t-64 83t-22 86.5
q0 57 32.5 90t88.5 33q43 0 73.5 -28t30.5 -76q0 -38 -19 -58t-42.5 -24t-42.5 -12.5t-19 -24.5q0 -36 88 -76.5t148 -40.5q154 0 240 98t86 271q0 100 -30.5 175.5t-81.5 117.5t-109.5 62t-122.5 20q-103 0 -226 -53q3 97 18 309t15 248q0 59 92 59z" />
    <glyph glyph-name="six" unicode="6" 
d="M260 657q-4 -45 -4 -186q0 -95 5 -158.5t20 -122.5t42.5 -92.5t72.5 -53t110 -19.5q51 0 91.5 14t68 35.5t47 57.5t30 70.5t16.5 84t7.5 89t1.5 93.5q0 344 -233 344q-145 0 -275 -156zM858 1348v-48q-257 -36 -406 -174t-186 -397q80 70 144.5 101.5t154.5 31.5
q170 0 292 -131t122 -307q0 -135 -66 -239.5t-174 -158t-237 -53.5q-100 0 -181 37.5t-131.5 96.5t-84 136t-47 150.5t-13.5 145.5q0 144 57 283.5t159.5 252t258 187t338.5 86.5z" />
    <glyph glyph-name="seven" unicode="7" 
d="M190 1321h758v-39q-67 -122 -94 -178l-195 -420q-94 -204 -94 -332q0 -70 26.5 -134.5t26.5 -108.5q0 -57 -32 -96.5t-84 -39.5q-63 0 -97 38.5t-34 109.5q1 34 5.5 61.5t24 84t54.5 128.5l374 774h-577q-38 0 -58.5 -31t-48.5 -128h-49z" />
    <glyph glyph-name="eight" unicode="8" 
d="M512 715q19 0 41.5 4t58 22t62.5 48t47 89t20 138q0 144 -55.5 214t-173.5 70t-173.5 -70t-55.5 -214q0 -79 20 -138t47 -89t62.5 -48t58 -22t41.5 -4zM512 -27q-116 0 -208.5 32.5t-147 85.5t-83 115.5t-28.5 127.5q0 72 35 136.5t92 110t128 75t144 38.5v4
q-35 3 -76.5 15.5t-90.5 38.5t-88.5 61t-66 90t-26.5 119q0 136 119 231t297 95t297 -95t119 -231q0 -64 -26.5 -119t-66 -90t-88.5 -61t-90.5 -38.5t-76.5 -15.5v-4q73 -9 144 -38.5t128 -75t92 -110t35 -136.5q0 -65 -28.5 -127.5t-83 -115.5t-147 -85.5t-208.5 -32.5z
M516 668q-52 0 -97 -16.5t-84 -51.5t-62 -99t-23 -151q0 -106 14 -164q17 -71 80.5 -118.5t171.5 -47.5q102 0 165 47.5t79 118.5q14 58 14 164q0 87 -23 151.5t-61.5 99t-82 51t-91.5 16.5z" />
    <glyph glyph-name="nine" unicode="9" 
d="M764 664q4 45 4 186q0 95 -5 158.5t-20 122.5t-42.5 92.5t-72.5 53t-110 19.5q-51 0 -91.5 -14t-68 -35.5t-47 -57.5t-30 -70.5t-16.5 -84t-7.5 -89t-1.5 -93.5q0 -344 233 -344q145 0 275 156zM166 -27v47q257 36 406 174.5t186 397.5q-80 -70 -144.5 -101.5
t-154.5 -31.5q-170 0 -292 131t-122 307q0 135 66 239.5t174 158t237 53.5q100 0 181 -37.5t131.5 -96.5t84 -136t47 -150.5t13.5 -145.5q0 -144 -57 -283.5t-159.5 -252t-258 -187t-338.5 -86.5z" />
    <glyph glyph-name="colon" unicode=":" horiz-adv-x="512" 
d="M252 602q-51 0 -84 33t-33 84q0 45 36 78.5t81 33.5q46 0 85.5 -33t39.5 -79q0 -51 -37 -84t-88 -33zM252 -23q-51 0 -84 33t-33 84q0 45 36 79t81 34q46 0 85.5 -33.5t39.5 -79.5q0 -51 -37 -84t-88 -33z" />
    <glyph glyph-name="semicolon" unicode=";" horiz-adv-x="512" 
d="M176 -330l-16 35q102 84 145 145.5t43 120.5q0 58 -24 58q-4 0 -7.5 -4t-10 -12t-11.5 -13q-27 -31 -78 -31q-54 0 -82.5 30.5t-28.5 84.5q0 51 41.5 87t94.5 36q77 0 124.5 -51.5t47.5 -147.5t-69.5 -184t-168.5 -154zM252 602q-51 0 -84 33t-33 84q0 45 36 78.5
t81 33.5q46 0 85.5 -33t39.5 -79q0 -51 -37 -84t-88 -33z" />
    <glyph glyph-name="less" unicode="&#x3c;" horiz-adv-x="1126" 
d="M1038 72v-131l-950 495v123l950 496v-133l-802 -424z" />
    <glyph glyph-name="equal" unicode="=" horiz-adv-x="1126" 
d="M1038 647h-950v119h950v-119zM1038 229h-950v119h950v-119z" />
    <glyph glyph-name="greater" unicode="&#x3e;" horiz-adv-x="1126" 
d="M88 -59v131l803 426l-803 424v133l950 -496v-123z" />
    <glyph glyph-name="question" unicode="?" horiz-adv-x="909" 
d="M377 393h-47q-11 47 -11 133q0 98 29 170.5t90 140t191 179.5q45 39 45 108q0 23 -8 51t-27.5 59.5t-48 57.5t-74 43t-100.5 17q-78 0 -146.5 -45t-68.5 -84q0 -13 12 -17.5t30 -6t36.5 -6.5t33 -23.5t17.5 -51.5q4 -41 -24 -68.5t-68 -27.5q-53 0 -82 36t-29 91
q0 72 47.5 129.5t115 86t136.5 28.5q141 0 242.5 -97.5t101.5 -240.5q0 -32 -5 -61.5t-10.5 -53t-20 -50t-23 -43t-31.5 -41t-33 -36t-39.5 -36t-40 -33t-44.5 -34.5t-44 -34q-68 -54 -85 -99t-17 -141zM373 -23q-51 0 -84 33.5t-33 85.5q0 46 36 80.5t81 34.5
q46 0 85.5 -33.5t39.5 -81.5q0 -52 -37 -85.5t-88 -33.5z" />
    <glyph glyph-name="at" unicode="@" horiz-adv-x="1593" 
d="M1042 829q0 146 -114 146q-59 0 -118.5 -54.5t-100.5 -154t-41 -213.5q0 -172 129 -172q73 0 149.5 121.5t95.5 326.5zM1075 940l21 84h141l-137 -535q-4 -15 -5 -33.5t3 -42.5t24 -39.5t54 -15.5q86 0 153 70t99 165.5t32 190.5q0 119 -41 222t-117.5 180t-193 121.5
t-258.5 44.5q-125 0 -233.5 -49t-189 -139t-127 -227.5t-46.5 -305.5q0 -89 27.5 -175.5t81 -161.5t127 -132t171.5 -90t207 -33q86 0 166 16t123.5 32t122.5 50l27 -51q-121 -55 -224 -86t-213 -31q-131 0 -245.5 31t-198 84.5t-149 122t-105 145.5t-60 152.5t-20.5 146.5
q0 163 60.5 304t163.5 237.5t241.5 151.5t292.5 55q150 0 277.5 -47t216 -128.5t138.5 -194.5t50 -243q0 -64 -16.5 -132t-49.5 -132t-78 -115t-108.5 -81.5t-134.5 -30.5q-48 0 -86.5 19t-58.5 44.5t-30 48t-9 33.5h-5q-29 -41 -94.5 -88t-144.5 -55q-21 -1 -43 2t-54 18
t-55.5 40.5t-41 76t-17.5 119.5q0 75 33 161.5t88 161t137.5 124t171.5 49.5q49 0 80 -26.5t55 -82.5h4z" />
    <glyph glyph-name="A" unicode="A" horiz-adv-x="1366" 
d="M434 555h352l-168 555h-4zM446 0h-399v47h162l444 1339h80l422 -1339h143v-47h-516v47h166l-141 451h-391l-146 -451h176v-47z" />
    <glyph glyph-name="B" unicode="B" horiz-adv-x="1251" 
d="M612 0h-528v47h158v1274h-158v47h530q115 0 204.5 -22.5t140.5 -56t84 -79.5t44 -86.5t11 -83.5q0 -73 -30.5 -132t-82 -96t-110.5 -59t-125 -30v-4q79 -9 145.5 -35.5t111.5 -62t76.5 -78.5t45.5 -85t14 -81q0 -52 -12 -99.5t-48 -100t-92.5 -90.5t-154 -62.5
t-224.5 -24.5zM440 694v-647h172q91 0 147 16t89.5 57t46 102.5t12.5 162.5q0 96 -22 157.5t-72 94.5t-113.5 45t-162.5 12h-97zM440 1321v-580h176q151 0 206 66.5t55 232.5q0 146 -63.5 213.5t-213.5 67.5h-160z" />
    <glyph glyph-name="C" unicode="C" horiz-adv-x="1251" 
d="M1096 1352v-348h-47q-35 159 -124 253.5t-241 94.5q-91 0 -164 -50.5t-108 -115.5q-84 -158 -84 -553q0 -97 5 -168t18 -144.5t38.5 -123.5t65 -90.5t100 -60t139.5 -19.5q72 0 135 28.5t109 77.5t79 109.5t54 130.5h49v-373h-55l-57 84q-135 -115 -322 -115
q-138 0 -251.5 57.5t-187 156.5t-113.5 230t-40 279q0 146 53 279.5t138.5 226t193 147t215.5 54.5q87 0 154 -26t147 -83l70 62h31z" />
    <glyph glyph-name="D" unicode="D" horiz-adv-x="1366" 
d="M242 47v1274h-158v47h549q291 0 465 -182.5t174 -489.5q0 -319 -213 -546q-146 -150 -430 -150h-545v47h158zM440 1321v-1274h201q68 1 124 15.5t91.5 34.5t65 51.5t44.5 56t31 57.5q50 115 50 471q0 49 -1.5 87.5t-5 85.5t-11 83t-19.5 76.5t-30.5 71t-43 61t-58 52
t-74.5 38t-94.5 25t-115.5 8.5h-154z" />
    <glyph glyph-name="E" unicode="E" horiz-adv-x="1251" 
d="M1128 0h-1067v47h181v1274h-181v47h1039v-334h-45q-13 89 -42 147.5t-76.5 88t-100.5 40.5t-129 11h-267v-590q76 0 110 2t75.5 12.5t58.5 34t32.5 64t24.5 106.5h45v-518h-45q-3 55 -12 94.5t-27 67t-39.5 44t-57.5 26t-73 12.5t-92 4v-633h248q74 0 121.5 3.5t93.5 16
t74 34.5t53.5 60t42 91.5t29.5 130.5h53z" />
    <glyph glyph-name="F" unicode="F" horiz-adv-x="1138" 
d="M616 0h-540v47h166v1274h-166v47h999l17 -362h-37q-18 70 -30.5 110.5t-32.5 80.5t-42 60t-58 36.5t-81.5 22t-110.5 5.5h-260v-596q41 0 64 1t54 4t47.5 9t37 16.5t32 25.5t23 37.5t17.5 52t10 67.5h47v-504h-45q-5 78 -23 125.5t-55.5 73t-84.5 33.5t-124 8v-627h176
v-47z" />
    <glyph glyph-name="G" unicode="G" horiz-adv-x="1366" 
d="M1042 1276l72 78h33v-350h-47q-32 157 -141 252.5t-275 95.5q-91 0 -164 -49.5t-108 -114.5q-84 -158 -84 -555q0 -82 3 -145.5t13 -130.5t26 -115.5t44 -93t66 -72t92 -44t122 -16.5q69 0 119.5 15t81.5 42.5t51 66t27 85t10 100t0 111.5h-199v49h555v-49h-125
q-5 -74 -20 -136.5t-52.5 -125.5t-94 -106.5t-149 -71t-212.5 -27.5q-138 0 -251.5 57.5t-187 156.5t-113.5 230t-40 279q0 118 34.5 228.5t94 196t135.5 150t163 98.5t173 34q213 0 348 -123z" />
    <glyph glyph-name="H" unicode="H" horiz-adv-x="1478" 
d="M444 735h590v586h-160v47h519v-47h-160v-1274h160v-47h-519v47h160v629h-590v-629h160v-47h-518v47h160v1274h-160v47h518v-47h-160v-586z" />
    <glyph glyph-name="I" unicode="I" horiz-adv-x="681" 
d="M616 47v-47h-550v47h176v1274h-176v47h550v-47h-176v-1274h176z" />
    <glyph glyph-name="J" unicode="J" horiz-adv-x="796" 
d="M182 1368h553v-47h-172v-1178q0 -146 -103 -239.5t-243 -93.5q-48 0 -94.5 18.5t-81.5 60.5t-35 99t29 90t82 33q45 0 75.5 -30t30.5 -75q0 -35 -19.5 -66t-19.5 -38q0 -18 21 -25.5t45 -7.5q53 0 84 37.5t31 95.5v1319h-183v47z" />
    <glyph glyph-name="K" unicode="K" horiz-adv-x="1366" 
d="M1018 1321h-184v47h407v-47h-151l-474 -508l623 -766h96v-47h-520v47h164l-518 668q-7 12 16 35zM598 47v-47h-514v47h158v1274h-158v47h514v-47h-158v-1274h158z" />
    <glyph glyph-name="L" unicode="L" horiz-adv-x="1138" 
d="M1096 0h-1022v47h168v1274h-168v47h555v-47h-189v-1274h367q48 0 90 22.5t71 57.5t52.5 81.5t37 89t21.5 85.5h39z" />
    <glyph glyph-name="M" unicode="M" horiz-adv-x="1593" 
d="M242 1321h-154v47h410l288 -1008h5l301 1008h407v-47h-156v-1274h156v-47h-512v47h158v1249h-4l-398 -1296h-53l-383 1296h-4v-1249h154v-47h-369v47h154v1274z" />
    <glyph glyph-name="N" unicode="N" horiz-adv-x="1366" 
d="M238 47v1274h-160v47h399l582 -991h4v944h-160v47h379v-47h-158v-1352h-53l-768 1311h-4v-1233h158v-47h-379v47h160z" />
    <glyph glyph-name="O" unicode="O" horiz-adv-x="1366" 
d="M682 -31q-128 0 -239.5 61t-187 161.5t-118.5 229.5t-43 265t43 264.5t118.5 228t187 160t239.5 60.5t239.5 -60.5t187 -160t118.5 -228t43 -264.5t-43 -265t-118.5 -229.5t-187 -161.5t-239.5 -61zM682 16q84 0 145.5 29.5t101.5 83t64 138.5t33.5 184.5t9.5 232.5
t-9.5 233t-33.5 184.5t-64 138t-101.5 83t-145.5 29.5t-145.5 -29.5t-101.5 -83t-64 -138t-33.5 -184.5t-9.5 -233t9.5 -232.5t33.5 -184.5t64 -138.5t101.5 -83t145.5 -29.5z" />
    <glyph glyph-name="P" unicode="P" horiz-adv-x="1138" 
d="M66 1321v47h544q110 0 197 -21t142.5 -55.5t92 -82t51.5 -98t15 -107.5q0 -53 -19 -105t-63.5 -104t-109.5 -91t-166.5 -63.5t-225.5 -24.5h-98v-569h182v-47h-557v47h176v1274h-161zM426 1321v-657h70q123 0 202 21.5t121 68.5t57 106.5t15 151.5q0 54 -6 96t-19.5 73.5
t-30.5 54.5t-45 38.5t-56 24.5t-71 14t-82.5 6.5t-97.5 1.5h-57z" />
    <glyph glyph-name="Q" unicode="Q" horiz-adv-x="1366" 
d="M1155 -410v-43h-59q-102 0 -180 11t-146 39t-112 74t-68.5 119t-24.5 171v23q-139 32 -247.5 138.5t-166 254.5t-57.5 309q0 136 43 264.5t118.5 228t187 160t239.5 60.5t239.5 -60.5t187 -160t118.5 -228t43 -264.5q0 -160 -57 -307t-165.5 -254t-248.5 -141v-103
q0 -77 16 -129t56.5 -90t109.5 -55t174 -17zM682 14q84 0 145.5 30t101.5 83.5t64 139t33.5 185t9.5 232.5t-9.5 233t-33.5 184.5t-64 138t-101.5 83t-145.5 29.5t-145.5 -29.5t-101.5 -83t-64 -138t-33.5 -184.5t-9.5 -233t9.5 -232.5t33.5 -185t64 -139t101.5 -83.5
t145.5 -30z" />
    <glyph glyph-name="R" unicode="R" horiz-adv-x="1366" 
d="M602 0h-518v47h158v1274h-158v47h604q81 0 148.5 -12t113.5 -31t81 -46t55.5 -53.5t33.5 -57t17 -54t4 -45.5q0 -77 -27 -136t-67 -93.5t-100.5 -58t-113.5 -33t-120 -15.5v-4q78 -19 132.5 -40t106.5 -57t82 -84t45.5 -120.5t10.5 -167.5q-11 -183 51 -211
q54 -37 182 10v-51q-101 -36 -182 -39q-103 -1 -167.5 47t-86.5 125q-4 16 -10 67.5t-14 133.5t-13 125q-3 27 -5.5 44t-10.5 46t-19.5 47.5t-33.5 41.5t-50 36.5t-71.5 23t-96.5 9.5h-123v-668h162v-47zM440 1321v-559h111q48 0 80.5 1.5t71 6t64 13.5t52 23.5t43 36.5
t30.5 52.5t20 72t6 93.5q0 146 -65.5 203t-217.5 57h-195z" />
    <glyph glyph-name="S" unicode="S" 
d="M197 84l-88 -90h-29v352h39q43 -146 147 -238t248 -92q138 0 241 83.5t103 213.5q0 95 -36 144.5t-150 95.5q-26 10 -131 46t-192 67.5t-101 40.5q-84 53 -125 136.5t-41 176.5q0 122 84 233q111 146 317 146q64 0 148 -31t121 -59l77 59h29v-319h-41
q-36 134 -126.5 218.5t-221.5 84.5q-71 0 -137 -29.5t-110 -88t-44 -132.5q0 -54 26.5 -94t71.5 -65t103 -44t122.5 -36.5t129 -38t122.5 -53t103 -76t71.5 -113t26.5 -158.5q0 -210 -121 -332.5t-323 -122.5q-198 0 -313 115z" />
    <glyph glyph-name="T" unicode="T" horiz-adv-x="1138" 
d="M838 0h-539v47h170v1274h-139q-55 0 -94.5 -16.5t-63.5 -42t-42 -70.5t-28 -88t-22 -108q-3 -15 -4 -23h-53l22 395h1055l14 -395h-53q-9 79 -27.5 137.5t-52 108.5t-90 76t-133.5 26h-90v-1274h170v-47z" />
    <glyph glyph-name="U" unicode="U" horiz-adv-x="1366" 
d="M76 1368h516v-47h-160v-1016q0 -19 5.5 -46.5t24 -68t47.5 -73t83.5 -56.5t124.5 -24q89 0 153.5 25t101 64.5t57.5 104t27.5 127.5t6.5 150v813h-158v47h371v-47h-158v-877q0 -242 -109.5 -358.5t-340.5 -116.5q-198 0 -316.5 102t-118.5 273v977h-157v47z" />
    <glyph glyph-name="V" unicode="V" horiz-adv-x="1366" 
d="M51 1321v47h518v-47h-159l344 -1022h4l329 1022h-186v47h389v-47h-145l-434 -1352h-52l-458 1352h-150z" />
    <glyph glyph-name="W" unicode="W" horiz-adv-x="1820" 
d="M694 270l174 478l-194 573h-312l328 -1051h4zM1122 1321h-264l121 -379h4zM168 1321h-125v47h1237v-47h-104l-158 -432l207 -623h4l340 1055h-160v47h369v-47h-154l-436 -1352h-62l-227 693h-4l-248 -693h-57z" />
    <glyph glyph-name="X" unicode="X" horiz-adv-x="1366" 
d="M465 47v-47h-422v47h172l360 600l-389 674h-143v47h528v-47h-151l289 -481l290 481h-168v47h406v-47h-164l-325 -541l428 -733h137v-47h-531v47h164l-332 551l-327 -551h178z" />
    <glyph glyph-name="Y" unicode="Y" horiz-adv-x="1366" 
d="M762 707l328 614h-203v47h422v-47h-164l-357 -686v-588h183v-47h-561v47h180v588l-395 686h-152v47h553v-47h-180z" />
    <glyph glyph-name="Z" unicode="Z" horiz-adv-x="1138" 
d="M1049 1303l-793 -1256h379q177 0 252.5 70.5t109.5 267.5h56l-23 -385h-997v84l790 1237h-379q-51 0 -87 -5t-65.5 -20t-48 -33t-37.5 -55t-32 -73t-33 -99h-47l21 332h934v-65z" />
    <glyph glyph-name="bracketleft" unicode="[" horiz-adv-x="569" 
d="M528 -367v-47h-428v1782h428v-47h-280v-1688h280z" />
    <glyph glyph-name="backslash" unicode="\" horiz-adv-x="569" 
d="M-8 1399h125l461 -1430h-127z" />
    <glyph glyph-name="bracketright" unicode="]" horiz-adv-x="569" 
d="M41 -414v47h281v1688h-281v47h428v-1782h-428z" />
    <glyph glyph-name="asciicircum" unicode="^" horiz-adv-x="1126" 
d="M262 543h-127l375 778h106l375 -778h-127l-301 628z" />
    <glyph glyph-name="underscore" unicode="_" 
d="M1024 -256h-1024v102h1024v-102z" />
    <glyph glyph-name="grave" unicode="`" horiz-adv-x="569" 
d="M436 897h-71l-273 166q-32 20 -42.5 27t-29.5 22.5t-25.5 29t-6.5 29.5q0 31 20 50.5t51 19.5q9 0 17 -2.5t17 -9t12.5 -9.5t14 -14t11.5 -12z" />
    <glyph glyph-name="a" unicode="a" horiz-adv-x="909" 
d="M858 141h35q-5 -72 -54.5 -120t-119.5 -48q-110 0 -133 125q-102 -125 -277 -125q-107 0 -173 47t-66 154q4 141 140.5 219t373.5 78v195q0 66 -43 95.5t-105 29.5q-21 0 -49.5 -3.5t-62 -11t-56 -23t-22.5 -36.5q0 -5 15 -15t30.5 -29.5t15.5 -49.5q0 -38 -23 -62
t-61 -24q-40 0 -63 27t-23 71q0 24 10.5 49t35 52t61 47.5t94 34t127.5 13.5q58 0 103 -7.5t74 -17.5t49.5 -28.5t30 -33t15 -39t6 -37.5t0.5 -37v-488q0 -38 1.5 -53.5t11 -28t30.5 -12.5q46 0 72 92zM584 238v190q-361 -5 -361 -213q0 -74 43.5 -118t114.5 -44
q90 0 158 60q14 14 20 21t15.5 36t9.5 68z" />
    <glyph glyph-name="b" unicode="b" 
d="M326 1430v-742h4q31 58 96.5 100.5t134.5 42.5q102 0 181 -40.5t124 -105.5t67.5 -137t22.5 -145q0 -188 -113 -309t-280 -121q-73 0 -137.5 43t-103.5 109h-5v-141q-27 2 -84 7t-100.5 7.5t-83.5 1.5v49h117v1315h-117v47h47q130 0 230 19zM330 590q-11 -101 -11 -281
q0 -73 20 -129t48 -86t64 -48.5t62.5 -24t49.5 -5.5q43 0 76 14.5t54.5 34.5t37 56t23 65.5t11.5 76.5t4.5 74.5t0.5 74.5q0 48 -1.5 82.5t-7.5 83.5t-20 82.5t-35.5 65.5t-58 48.5t-84.5 16.5q-91 0 -160 -72t-73 -129z" />
    <glyph glyph-name="c" unicode="c" horiz-adv-x="909" 
d="M780 254h43q-19 -60 -44 -105t-64 -86t-98 -64t-136 -26q-91 0 -164.5 29t-118.5 73t-75.5 100.5t-42.5 107t-12 96.5q0 104 31.5 186.5t78 130.5t105 80t106.5 43.5t88 11.5q53 0 107 -12.5t103.5 -37.5t80.5 -69t31 -100q0 -43 -25.5 -75.5t-66.5 -32.5
q-42 0 -69.5 26.5t-27.5 69.5q0 27 10.5 48t22.5 30t22.5 18.5t10.5 16.5q0 36 -62.5 57t-111.5 21q-141 0 -194.5 -99.5t-53.5 -312.5q0 -142 43 -246q49 -108 201 -117q89 -4 167 62t115 176z" />
    <glyph glyph-name="d" unicode="d" 
d="M692 575q-5 20 -10 35.5t-24 52.5t-43 62t-67.5 45.5t-96.5 20.5q-39 0 -70.5 -12.5t-52 -32t-35 -50.5t-22 -59t-11.5 -68t-5 -67t-1 -66q0 -242 42 -331t165 -89q36 0 76.5 18t64.5 38q44 39 63.5 69t30.5 89.5t11 164.5q0 129 -15 180zM858 47h113v-47
q-168 0 -271 -16v137h-4q-86 -148 -268 -148q-101 0 -184 59.5t-129.5 158.5t-46.5 215q0 180 102.5 302.5t278.5 122.5q39 0 80 -11.5t89 -48.5t76 -95h4v688h-137v47h68q129 0 229 19v-1383z" />
    <glyph glyph-name="e" unicode="e" horiz-adv-x="909" 
d="M793 254h45q-30 -139 -126 -210t-235 -71q-104 0 -198 51t-152.5 143t-58.5 202q0 122 49 226.5t142.5 170t211.5 65.5q159 0 263.5 -99.5t105.5 -264.5h-580v-84q0 -68 4.5 -117t19.5 -99t41.5 -81t73 -50.5t111.5 -19.5q90 0 176 69.5t107 168.5zM262 526h391v70
q0 103 -52 149t-136 46q-43 0 -79 -17.5t-57 -42.5t-32 -42.5t-14 -26.5q-18 -55 -21 -136z" />
    <glyph glyph-name="f" unicode="f" horiz-adv-x="569" 
d="M330 811h166v-47h-166v-717h166v-47h-484v47h158v717h-158v47h158v100q0 251 93 374.5t249 123.5q69 0 120.5 -33.5t51.5 -99.5q0 -29 -24 -48.5t-52 -19.5q-40 0 -62 26t-22 69q0 11 8.5 24t8.5 27q0 12 -49 12q-74 0 -118 -86t-44 -238v-231z" />
    <glyph glyph-name="g" unicode="g" horiz-adv-x="909" 
d="M197 129h219q210 0 279.5 -15t119.5 -71q57 -65 57 -166q0 -73 -24.5 -132t-65 -97.5t-95 -64.5t-112 -37t-118.5 -11q-105 0 -185 21t-123.5 54t-64.5 68t-21 70q0 163 240 225v7q-31 4 -46 6.5t-43 9t-43 13.5t-35.5 20.5t-30.5 30t-17.5 41t-7.5 55.5q0 125 205 157v4
q-154 75 -154 232q0 50 18 98.5t52.5 90.5t93 67.5t131.5 25.5q178 0 256 -118q19 45 52 79.5t79 34.5q33 0 56.5 -16.5t23.5 -52.5q0 -33 -17.5 -55.5t-48.5 -22.5q-12 0 -23.5 9.5t-19 21t-15 21t-11.5 9.5q-15 0 -30 -17t-15 -32q0 -7 14 -53.5t14 -79.5
q0 -55 -17.5 -100t-42.5 -72.5t-55 -47t-52.5 -27.5t-38.5 -9q-32 -4 -84.5 -10t-83 -10t-71 -10.5t-64 -14.5t-46.5 -20t-33 -28.5t-10 -37.5q0 -18 15.5 -30.5t38.5 -12.5zM195 -244q0 -61 40 -102.5t92 -56.5t111 -15q98 0 170.5 21.5t108 49t56.5 64t24.5 56.5t3.5 37
q0 50 -10 80t-40.5 54.5t-90.5 35t-156 10.5q-69 0 -124.5 -18t-89 -44.5t-56 -59.5t-31 -61t-8.5 -51zM442 791q-80 0 -115.5 -51.5t-35.5 -192.5q0 -215 131 -215q44 0 74.5 13t47 32t25.5 52t11 62t2 74t-5 79.5t-18.5 70.5t-43 56t-73.5 20z" />
    <glyph glyph-name="h" unicode="h" 
d="M162 47v1317h-113v47h43q130 0 230 19v-816h4q47 105 113.5 161t172.5 56q28 0 54.5 -3t63 -15t62.5 -32.5t45 -60.5t19 -93v-580h111v-47h-377v47h106v553q0 55 -8 90t-26 52.5t-39.5 23.5t-55.5 6q-66 0 -124 -54t-89.5 -133t-31.5 -157v-381h110v-47h-383v47h113z" />
    <glyph glyph-name="i" unicode="i" horiz-adv-x="569" 
d="M483 0h-417v47h137v717h-137v47h67q147 0 229 20v-784h121v-47zM182 1253q0 39 30 69t69 30q38 0 71 -30t33 -69q0 -47 -29.5 -77.5t-74.5 -30.5q-43 0 -71 31.5t-28 76.5z" />
    <glyph glyph-name="j" unicode="j" horiz-adv-x="569" 
d="M389 831v-827q0 -85 -20.5 -167t-60 -150t-103.5 -110t-144 -42q-51 0 -93 29.5t-42 81.5q0 37 27.5 53t66.5 16q23 0 39 -17.5t21 -34.5l4 -17q3 -18 17 -32.5t32 -14.5q96 0 96 237v928h-137v47h68q147 0 229 20zM209 1253q0 39 29.5 69t68.5 30q38 0 71.5 -30
t33.5 -69q0 -47 -30 -77.5t-75 -30.5q-43 0 -70.5 31.5t-27.5 76.5z" />
    <glyph glyph-name="k" unicode="k" 
d="M678 764h-121v47h336v-47h-125l-283 -246l389 -471h87v-47h-390v47h103l-342 416l346 295v6zM453 0h-390v47h107v1317h-107v47h37q130 0 230 19v-1383h123v-47z" />
    <glyph glyph-name="l" unicode="l" horiz-adv-x="569" 
d="M516 0h-475v47h158v1317h-158v47h88q129 0 229 19v-1383h158v-47z" />
    <glyph glyph-name="m" unicode="m" horiz-adv-x="1478" 
d="M1329 47h103v-47h-377v47h114v582q0 70 -31.5 106.5t-82.5 36.5q-60 0 -115 -50.5t-85 -118.5t-30 -126v-430h109v-47h-377v47h109v582q0 70 -31.5 106.5t-83.5 36.5q-61 0 -115 -52t-84 -130t-30 -156v-387h114v-47h-377v47h103v717h-103v47h33q148 0 230 20v-194h4
q26 42 42.5 65t42.5 52t50.5 43t60.5 24t80 10q90 0 150 -51t69 -141h4q54 92 121.5 142t161.5 50q27 0 52.5 -4.5t57.5 -19.5t55.5 -39.5t39.5 -70t16 -105.5v-545z" />
    <glyph glyph-name="n" unicode="n" 
d="M172 47v717h-113v47h43q78 0 115 4q54 3 115 16v-217h4q47 105 114 161t173 56q28 0 54 -3t62.5 -15t62.5 -32.5t45 -60.5t19 -93v-580h111v-47h-377v47h107v553q0 55 -8 90t-26 52.5t-39.5 23.5t-55.5 6q-66 0 -124 -54t-90 -133t-32 -157v-381h110v-47h-383v47h113z
" />
    <glyph glyph-name="o" unicode="o" horiz-adv-x="909" 
d="M455 831q164 0 279.5 -122.5t115.5 -305.5q0 -184 -115.5 -307t-279.5 -123q-80 0 -152.5 32.5t-126 89t-85.5 137t-32 171.5q0 183 116 305.5t280 122.5zM455 791q-34 0 -62 -8t-48 -20.5t-36 -34.5t-26.5 -42t-17.5 -51.5t-10.5 -54.5t-5.5 -60t-2.5 -58.5t-0.5 -58.5
t0.5 -59t2.5 -59t5.5 -60t10.5 -54.5t17.5 -51.5t26.5 -42t36 -34.5t48 -20.5t62 -8t62 8t48 20.5t36 34.5t26.5 42t17.5 51.5t10.5 54.5t5.5 60t2.5 59t0.5 59t-0.5 58.5t-2.5 58.5t-5.5 60t-10.5 54.5t-17.5 51.5t-26.5 42t-36 34.5t-48 20.5t-62 8z" />
    <glyph glyph-name="p" unicode="p" 
d="M166 -416v1180h-121v47h43q78 0 117 4q56 3 117 16v-159l4 2q39 74 105.5 115.5t143.5 41.5q50 0 100.5 -15t101.5 -49.5t90.5 -84.5t64 -127t24.5 -170q0 -77 -25.5 -149.5t-73 -131.5t-123 -95t-167.5 -36q-157 0 -237 138h-4v-527h139v-47h-420v47h121zM334 553
q-8 -54 -8 -188q0 -99 8 -142t33 -90q25 -49 82.5 -84t103.5 -35q25 0 39.5 1t38 5.5t37.5 14.5t32 27.5t29 45.5t21.5 66.5t15 93.5t4.5 123q0 219 -48 305t-163 86q-20 0 -48 -8.5t-66 -30.5t-69 -71.5t-42 -118.5z" />
    <glyph glyph-name="q" unicode="q" 
d="M854 -416h119v-47h-414v47h135v525h-4q-77 -136 -258 -136q-152 0 -258 123.5t-106 292.5q0 94 25.5 171.5t65 126.5t90 82.5t97.5 47.5t90 14q87 0 158.5 -44.5t101.5 -122.5h4v167q34 -10 131 -18q47 -2 113 -2h29v-47h-119v-1180zM698 420q0 117 -14 176t-70 117
q-66 69 -163 69q-40 0 -72 -16t-52.5 -38.5t-35 -60.5t-21.5 -69.5t-11 -78.5t-4.5 -73.5t-0.5 -68.5q0 -56 2.5 -97t14.5 -93.5t32.5 -86t59.5 -57t94 -23.5q19 0 42.5 4t60.5 20.5t65.5 44.5t49.5 82.5t21 127.5q0 21 1 61t1 60z" />
    <glyph glyph-name="r" unicode="r" horiz-adv-x="681" 
d="M336 831v-192h4q32 79 92.5 135.5t138.5 56.5q55 0 90 -29t35 -85q0 -36 -30 -56t-66 -20q-28 0 -54 26t-26 56q0 9 4 24.5t4 18.5q0 12 -18 12q-4 0 -21 -10t-46.5 -40t-49.5 -71q-51 -104 -51 -221v-389h158v-47h-457v47h139v717h-139v47h63q148 0 230 20z" />
    <glyph glyph-name="s" unicode="s" horiz-adv-x="796" 
d="M592 811h35v-229h-45q-25 94 -80.5 149.5t-143.5 59.5q-47 1 -84 -12t-56.5 -31.5t-32 -42t-16 -39t-3.5 -25.5q0 -26 8 -41t39.5 -34t99.5 -37.5t183 -41.5q116 -24 164.5 -79t48.5 -154q0 -128 -84.5 -204.5t-210.5 -76.5q-66 0 -129.5 26.5t-106.5 74.5l-45 -74h-45
v270h47q31 -115 106 -185.5t185 -70.5q74 0 136.5 50.5t62.5 125.5q0 55 -68 89t-215 71q-114 28 -149 45q-89 42 -102 142q-3 20 -3 43q0 37 13 76.5t41.5 80.5t86 67.5t136.5 26.5q97 0 190 -75z" />
    <glyph glyph-name="t" unicode="t" horiz-adv-x="569" 
d="M37 764v47h121v252q104 0 155 8v-260h181v-47h-181v-627q0 -16 0.5 -24.5t4.5 -23.5t11.5 -23t23.5 -14.5t38 -6.5q25 0 47.5 13t33.5 24t34 39l33 -23q-28 -56 -92.5 -90.5t-129.5 -34.5q-53 0 -87 13.5t-50 40.5t-21 55t-5 70v612h-117z" />
    <glyph glyph-name="u" unicode="u" 
d="M963 47v-47h-43q-94 0 -224 -14v166h-4q-40 -85 -118.5 -133t-178.5 -48q-72 0 -122 16.5t-74.5 47t-34.5 62.5t-10 73v594h-111v47h41q147 0 229 20v-643q0 -151 125 -151q107 0 177.5 78t70.5 190v459h-117v47h47q148 0 230 20v-784h117z" />
    <glyph glyph-name="v" unicode="v" horiz-adv-x="909" 
d="M137 764h-98v47h369v-47h-109l199 -588h4l207 588h-125v47h278v-47h-98l-283 -791h-69z" />
    <glyph glyph-name="w" unicode="w" horiz-adv-x="1251" 
d="M131 764h-117v47h394v-47h-121l166 -545h4l184 592h68l192 -592h4l160 545h-141v47h305v-47h-113l-231 -791h-58l-204 607h-5l-186 -607h-65z" />
    <glyph glyph-name="x" unicode="x" horiz-adv-x="909" 
d="M322 47v-47h-297v47h122l234 336l-248 381h-108v47h383v-47h-111l168 -256l176 256h-115v47h293v-47h-117l-208 -297l278 -420h100v-47h-378v47h106l-190 293l-199 -293h111z" />
    <glyph glyph-name="y" unicode="y" horiz-adv-x="909" 
d="M868 764h-102l-328 -901q-25 -68 -43 -111t-42.5 -88.5t-48.5 -71t-57 -41.5t-71 -16q-34 0 -66 27.5t-32 62.5q0 40 24.5 64t59.5 24q28 0 47.5 -11.5t27.5 -26t16 -26t15 -11.5q21 0 37 29t41 95q49 120 88 238l-313 764h-96v47h393v-47h-131l227 -551l195 551h-131v47
h290v-47z" />
    <glyph glyph-name="z" unicode="z" horiz-adv-x="796" 
d="M150 545h-48v266h615v-51l-475 -713h258q71 0 109.5 63t64.5 187h39v-297h-662v45l479 719h-182q-46 0 -72.5 -6t-53.5 -27t-44 -66.5t-28 -119.5z" />
    <glyph glyph-name="braceleft" unicode="{" horiz-adv-x="681" 
d="M559 -403v-25q-56 0 -97 6.5t-80.5 26.5t-64.5 54.5t-40 92t-15 137.5v330q0 119 -26 174.5t-115 85.5q38 12 63.5 29t41 37t23.5 51t10.5 62t2.5 79v330q0 80 15 137.5t40 92t64.5 54.5t80.5 26.5t97 6.5v-24q-90 -25 -119.5 -88.5t-29.5 -192.5v-309q0 -125 -39.5 -193
t-141.5 -96v-4q102 -30 141.5 -98t39.5 -193v-309q0 -128 29.5 -191t119.5 -89z" />
    <glyph glyph-name="bar" unicode="|" horiz-adv-x="454" 
d="M168 1536h119v-2048h-119v2048z" />
    <glyph glyph-name="braceright" unicode="}" horiz-adv-x="681" 
d="M123 1360v24q56 0 97 -6.5t80.5 -26.5t64.5 -54.5t40 -92t15 -137.5v-330q0 -48 2.5 -79t10.5 -62t23.5 -51t41 -37t63.5 -29q-89 -30 -115 -85.5t-26 -174.5v-330q0 -80 -15 -137.5t-40 -92t-64.5 -54.5t-80.5 -26.5t-97 -6.5v25q90 26 119.5 89t29.5 191v309
q0 125 39.5 193t141.5 98v4q-102 28 -141.5 96t-39.5 193v309q0 129 -29.5 192.5t-119.5 88.5z" />
    <glyph glyph-name="asciitilde" unicode="~" horiz-adv-x="1126" 
d="M963 639l73 -90q-60 -88 -102 -125q-69 -59 -154 -59t-209 71q-132 74 -235 74q-61 0 -101.5 -42.5t-70.5 -111.5l-74 90q92 183 256 183q84 0 227 -68q5 -2 43 -20t49.5 -23t38.5 -15.5t44.5 -14t33.5 -3.5q38 0 74 25t56.5 53t50.5 76z" />
    <glyph glyph-name="exclamdown" unicode="&#xa1;" horiz-adv-x="569" 
d="M262 532h45q5 -188 28.5 -387.5t44.5 -323t21 -136.5q0 -58 -30 -99t-86 -41t-86.5 41.5t-30.5 98.5q0 13 21 136.5t44.5 323t28.5 387.5zM281 731q-51 0 -84 33.5t-33 85.5q0 46 36 80.5t81 34.5q46 0 85.5 -33.5t39.5 -81.5q0 -52 -37 -85.5t-88 -33.5z" />
    <glyph glyph-name="cent" unicode="&#xa2;" 
d="M379 96l239 682q-30 6 -57 6q-141 0 -194.5 -98.5t-53.5 -308.5q0 -87 15.5 -155.5t28.5 -92.5t22 -33zM840 250h43q-19 -59 -44 -103.5t-64 -85.5t-98 -63.5t-136 -24.5q-69 0 -131 19l-99 -279h-65l104 299q-60 28 -105.5 74.5t-70 98t-36 100t-11.5 92.5q0 102 32 184
t78.5 130t105 79.5t106.5 43t88 11.5q52 0 96 -10l96 270h66l-101 -286q72 -26 118 -74t46 -117q0 -43 -25.5 -75.5t-66.5 -32.5q-42 0 -69 25.5t-27 68.5q0 28 10 49t22.5 30t22.5 18t10 16q0 34 -55 51l-250 -709q63 -32 127 -35q89 -4 167.5 61.5t115.5 174.5z" />
    <glyph glyph-name="sterling" unicode="&#xa3;" 
d="M909 399h43q0 -124 -19.5 -209.5t-58 -133t-88 -67.5t-116.5 -20q-64 0 -117.5 36t-110.5 97q-62 -73 -107.5 -102t-123.5 -29q-43 0 -76 13.5t-50.5 32.5t-28.5 43.5t-14 42.5t-3 34q0 81 51 124.5t131 43.5q26 0 55 -6.5t48 -13t53 -20.5t49 -19q10 68 10 82
q0 40 -9 86t-19 76t-29 82.5t-27 76.5h-227v56h207q-60 139 -60 264q0 32 7.5 69t24 80.5t45.5 82.5t67.5 71.5t95.5 51.5t125 19q48 0 96 -15t90 -44t68.5 -78t26.5 -110q0 -46 -30 -82.5t-75 -36.5q-50 0 -80.5 26t-30.5 76q0 56 58 88q9 4 20.5 6.5t18 3t11.5 4t5 11.5
q0 32 -33.5 57t-71.5 35t-67 10q-94 0 -152.5 -64.5t-58.5 -162.5q0 -36 52 -188t57 -174h237v-56h-225q8 -57 8 -131q0 -159 -59 -307q147 -47 223 -47q107 0 145.5 59t38.5 176zM397 152q-41 46 -82 70t-94 24q-48 0 -74 -34t-26 -85q0 -50 28.5 -78.5t75.5 -28.5
q54 0 100.5 38t71.5 94z" />
    <glyph glyph-name="currency" unicode="&#xa4;" 
d="M-37 193l201 200q-92 116 -92 264q0 146 90 267l-199 198l84 84l199 -198q117 90 266 90q148 0 266 -90l199 198l84 -84l-199 -198q90 -121 90 -267q0 -149 -90 -266l199 -198l-84 -84l-201 200q-115 -92 -264 -92q-152 0 -264 92l-201 -200zM190 657q0 -133 94 -227
t228 -94t228 94t94 227t-94 227.5t-228 94.5t-228 -94.5t-94 -227.5z" />
    <glyph glyph-name="yen" unicode="&#xa5;" 
d="M809 0h-563v49h200v365h-364v49h364v174l-20 39h-344v49h317l-301 547h-141v49h492v-49h-168l301 -570l288 570h-182v49h381v-49h-141l-279 -547h293v-49h-317l-19 -39v-174h336v-49h-336v-365h203v-49z" />
    <glyph glyph-name="brokenbar" unicode="&#xa6;" horiz-adv-x="454" 
d="M168 1382h119v-716h-119v716zM168 358h119v-716h-119v716z" />
    <glyph glyph-name="section" unicode="&#xa7;" 
d="M512 -324q-50 0 -100.5 12.5t-95.5 37.5t-73 68t-28 97q0 43 32 74.5t75 36.5q41 4 72.5 -27t31.5 -73q0 -19 -11 -36.5t-24 -28.5t-24 -23t-11 -21q0 -34 55 -55t95 -21q73 0 122.5 42.5t49.5 123.5q0 48 -29.5 95t-76 87t-103.5 82t-113.5 87.5t-103 94.5t-76 113
t-29.5 133q0 126 76 193.5t191 67.5l4 4q-43 35 -70.5 61t-58 64.5t-45.5 83.5t-15 96q0 120 84.5 187t206.5 67q99 0 177.5 -57.5t78.5 -155.5q0 -43 -30 -74t-72 -31t-70.5 26.5t-28.5 68.5q0 21 11 40t24 30t24 23t11 21q0 31 -47.5 49.5t-81.5 18.5q-70 0 -122 -43
t-52 -113q0 -43 29.5 -89t76.5 -88t104 -86.5t114.5 -93t104.5 -99.5t76.5 -114t29.5 -128q0 -123 -70 -191.5t-193 -68.5v-4q39 -38 51 -49.5t41 -42.5t39 -49t25 -47.5t20 -59t5 -64.5q0 -106 -81.5 -179t-201.5 -73zM483 346q69 -57 146 -57q64 0 101.5 45.5t37.5 111.5
q0 80 -158 220q-41 38 -68.5 60.5t-72 43.5t-86.5 21q-52 0 -92.5 -45.5t-40.5 -98.5q0 -25 7 -50.5t25.5 -52t31.5 -44.5t43.5 -46t41.5 -38t46 -39t38 -31z" />
    <glyph glyph-name="dieresis" unicode="&#xa8;" horiz-adv-x="569" 
d="M84 934q-40 0 -67 27t-27 67q0 41 26.5 69.5t67.5 28.5q39 0 67.5 -29.5t28.5 -68.5t-28.5 -66.5t-67.5 -27.5zM483 934q-40 0 -67 27t-27 67q0 41 26.5 69.5t67.5 28.5q39 0 68 -29.5t29 -68.5t-29 -66.5t-68 -27.5z" />
    <glyph glyph-name="copyright" unicode="&#xa9;" horiz-adv-x="1638" 
d="M819 -31q-150 0 -284.5 56.5t-229.5 152t-151 226.5t-56 276q0 195 94.5 360t260.5 262t366 97q201 0 367 -96.5t260 -261.5t94 -361q0 -193 -94 -356t-260 -259t-367 -96zM819 49q169 0 308.5 88t217.5 232.5t78 310.5q0 168 -77.5 314.5t-217.5 235.5t-309 89
q-168 0 -308 -89t-218 -235.5t-78 -314.5q0 -124 46.5 -239.5t126 -201.5t192.5 -138t239 -52zM1135 506h30l-32 -144q0 -15 -11.5 -22t-42.5 -16q-102 -35 -217 -35q-92 0 -170 23.5t-141 71t-99 128.5t-36 188q0 66 29.5 135t83.5 129.5t144 99t199 38.5q38 0 74.5 -5
t52.5 -9t51 -15t40 -12q43 -14 43 -43v-146h-31q-7 78 -63.5 133.5t-172.5 55.5q-145 0 -214.5 -95t-71.5 -257q-2 -175 71.5 -277t231.5 -102q180 0 252 176z" />
    <glyph glyph-name="ordfeminine" unicode="&#xaa;" horiz-adv-x="573" 
d="M485 1217v-283q0 -21 1 -30t7.5 -16t20.5 -7q31 0 47 53h23q-3 -44 -38.5 -75.5t-94.5 -31.5q-35 0 -58 23.5t-31 58.5q-31 -41 -85.5 -61.5t-104.5 -20.5q-72 0 -118 31.5t-46 93.5q3 82 99.5 132.5t244.5 50.5v100q0 72 -86 72q-35 0 -74.5 -9.5t-39.5 -31.5
q0 -3 10 -9.5t20.5 -18t10.5 -28.5q0 -21 -19.5 -35t-46.5 -14q-33 0 -54.5 16t-21.5 40q0 41 58.5 84t164.5 47q60 -2 102.5 -12.5t63 -22.5t31.5 -32.5t12.5 -32.5t1.5 -31zM352 989v111q-215 -6 -215 -123q0 -45 23.5 -69.5t68.5 -24.5q60 0 103 35q20 13 20 71z" />
    <glyph glyph-name="guillemotleft" unicode="&#xab;" 
d="M322 442q60 -60 134 -168t74 -124q0 -3 -3.5 -11t-8.5 -8q-14 0 -59.5 42.5t-114.5 110t-117 105.5q-10 8 -21.5 17t-16.5 13t-10.5 8.5t-7 7.5t-1.5 7t2 7t6.5 7.5t10 8.5t17 13t21.5 18q48 38 117 105.5t114.5 110t59.5 42.5q5 0 8.5 -8t3.5 -11q0 -16 -74 -124.5
t-134 -168.5zM643 442q60 -60 134.5 -168t74.5 -124q0 -3 -3.5 -11t-8.5 -8q-14 0 -59.5 42.5t-114.5 110t-117 105.5q-10 8 -21.5 17t-16.5 13t-10.5 8.5t-7 7.5t-1.5 7t2 7t6.5 7.5t10 8.5t17 13t21.5 18q48 38 117 105.5t114.5 110t59.5 42.5q5 0 8.5 -8t3.5 -11
q0 -16 -74.5 -124.5t-134.5 -168.5z" />
    <glyph glyph-name="logicalnot" unicode="&#xac;" horiz-adv-x="1126" 
d="M920 186v461h-832v119h950v-580h-118z" />
    <glyph glyph-name="registered" unicode="&#xae;" horiz-adv-x="1638" 
d="M487 1047v30h357q102 0 174 -49t72 -143q0 -78 -46.5 -133.5t-123.5 -83.5l120 -164q101 -139 164 -176v-19h-123q-20 0 -39.5 14t-42.5 46.5t-45 68t-59.5 95t-73.5 110.5h-108v-199v-10q0 -62 11.5 -73.5t79.5 -17.5q7 -1 11 -1v-33h-328v33q72 7 85 15q15 10 16 52v35
v498q0 32 0.5 41t-4.5 25.5t-6.5 18t-19 8.5t-27.5 7.5t-44 4.5zM713 1036v-350h96q75 0 114.5 51t39.5 142q0 82 -44.5 119.5t-115.5 37.5h-90zM819 -31q-150 0 -284.5 56.5t-229.5 152t-151 226.5t-56 276q0 195 94.5 360t260.5 262t366 97q201 0 367 -96.5t260 -261.5
t94 -361q0 -193 -94 -356t-260 -259t-367 -96zM819 49q169 0 308.5 88t217.5 232.5t78 310.5q0 168 -77.5 314.5t-217.5 235.5t-309 89q-168 0 -308 -89t-218 -235.5t-78 -314.5q0 -124 46.5 -239.5t126 -201.5t192.5 -138t239 -52z" />
    <glyph glyph-name="macron" unicode="&#xaf;" horiz-adv-x="569" 
d="M12 979v102h545v-102h-545z" />
    <glyph glyph-name="macron" unicode="&#x2c9;" horiz-adv-x="569" 
d="M12 979v102h545v-102h-545z" />
    <glyph glyph-name="degree" unicode="&#xb0;" horiz-adv-x="819" 
d="M410 827q90 0 153.5 68t63.5 160t-63.5 159.5t-153.5 67.5t-153.5 -67.5t-63.5 -159.5t63.5 -160t153.5 -68zM410 762q-123 0 -208 85t-85 208t85 208t208 85t207.5 -85t84.5 -208t-84.5 -208t-207.5 -85z" />
    <glyph glyph-name="plusminus" unicode="&#xb1;" horiz-adv-x="1126" 
d="M1038 0h-950v119h950v-119zM504 664v331h119v-331h415v-119h-415v-332h-119v332h-416v119h416z" />
    <glyph glyph-name="twosuperior" unicode="&#xb2;" horiz-adv-x="614" 
d="M584 760l-19 -221h-553v71l113 103q176 163 234.5 239t58.5 158q0 75 -44.5 132.5t-117.5 57.5q-72 0 -120 -43.5t-48 -85.5v-18q35 14 53 14q31 0 49.5 -19t18.5 -44q0 -30 -24.5 -50t-53.5 -20q-41 0 -71.5 32.5t-30.5 78.5q0 66 41 113.5t100.5 68.5t128.5 21
q51 0 101 -12.5t95 -37t73 -68.5t28 -100q0 -65 -52.5 -128.5t-193.5 -178.5l-196 -157v-4h307q46 0 58.5 17.5t17.5 80.5h47z" />
    <glyph glyph-name="threesuperior" unicode="&#xb3;" horiz-adv-x="614" 
d="M547 1167q0 -70 -55.5 -120.5t-133.5 -69.5v-4q110 -20 173 -68.5t63 -146.5q0 -35 -22.5 -75t-63 -76.5t-109 -60.5t-149.5 -24q-121 0 -185.5 51t-64.5 113q0 31 28.5 54.5t63.5 23.5q28 0 55 -16.5t27 -40.5q0 -28 -13 -41.5t-29 -14t-29 -5t-13 -17.5q0 -30 54.5 -49
t93.5 -19q98 0 138 49.5t40 169.5q0 78 -49 119t-140 41q-23 0 -45.5 -8t-25.5 -8q-15 0 -24.5 2t-18.5 14t-9 35q0 12 12 20.5t31 8.5q10 0 32 -8.5t34 -8.5q75 0 118.5 40t43.5 142q0 76 -34 108t-99 32q-30 0 -61 -11t-31 -34q0 -9 8.5 -14.5t19 -8.5t19 -13.5t8.5 -27.5
q0 -27 -21.5 -45t-50.5 -18q-38 0 -61 21t-23 61q0 16 11.5 36t36.5 42t73.5 36.5t112.5 14.5q61 0 121 -21.5t101.5 -64t41.5 -95.5z" />
    <glyph glyph-name="acute" unicode="&#xb4;" horiz-adv-x="569" 
d="M133 897l305 297q1 1 11.5 12t14 14t12.5 9.5t17 9t17 2.5q31 0 51.5 -19.5t20.5 -50.5q0 -29 -22.5 -50t-72.5 -52q-7 -4 -10 -6l-272 -166h-72z" />
    <glyph glyph-name="mu" unicode="&#xb5;" 
d="M963 49v-49h-43q-94 0 -224 -14v166h-4q-40 -85 -118.5 -133t-178.5 -48q-86 0 -131 37q-13 -39 -10 -106q2 -34 38 -116t36 -128q0 -52 -27 -87.5t-80 -35.5q-49 0 -73.5 44t-24.5 118q0 58 15.5 205t15.5 243v619h-111v47h41q147 0 229 20v-643q0 -151 125 -151
q107 0 177.5 78t70.5 190v459h-117v47h47q148 0 230 20v-782h117z" />
    <glyph glyph-name="mu" unicode="&#x3bc;" 
d="M963 49v-49h-43q-94 0 -224 -14v166h-4q-40 -85 -118.5 -133t-178.5 -48q-86 0 -131 37q-13 -39 -10 -106q2 -34 38 -116t36 -128q0 -52 -27 -87.5t-80 -35.5q-49 0 -73.5 44t-24.5 118q0 58 15.5 205t15.5 243v619h-111v47h41q147 0 229 20v-643q0 -151 125 -151
q107 0 177.5 78t70.5 190v459h-117v47h47q148 0 230 20v-782h117z" />
    <glyph glyph-name="paragraph" unicode="&#xb6;" horiz-adv-x="1228" 
d="M1036 1368v-47h-168v-1727h168v-47h-698v47h168v916q-206 0 -318 121t-112 323q0 414 452 414h508zM506 557v764q-134 0 -183 -85.5t-49 -285.5q0 -213 48.5 -303t183.5 -90zM625 1321v-1727h125v1727h-125z" />
    <glyph glyph-name="periodcentered" unicode="&#xb7;" horiz-adv-x="512" 
d="M252 381q-51 0 -84 33t-33 84q0 45 36 78.5t81 33.5q46 0 85.5 -33t39.5 -79q0 -51 -37 -84t-88 -33z" />
    <glyph glyph-name="periodcentered" unicode="&#x2219;" horiz-adv-x="512" 
d="M252 381q-51 0 -84 33t-33 84q0 45 36 78.5t81 33.5q46 0 85.5 -33t39.5 -79q0 -51 -37 -84t-88 -33z" />
    <glyph glyph-name="cedilla" unicode="&#xb8;" horiz-adv-x="569" 
d="M311 0l-61 -135q50 12 78 12q49 0 100 -36t51 -105q0 -48 -22.5 -83.5t-60.5 -53.5t-79 -26.5t-86 -8.5q-97 0 -168 30l29 62q92 -25 119 -25q50 0 87.5 20.5t37.5 65.5q0 39 -28 59.5t-60 20.5q-36 -4 -62 -10l-36 10l90 203h71z" />
    <glyph glyph-name="onesuperior" unicode="&#xb9;" horiz-adv-x="614" 
d="M530 539h-436v41h146v661q0 33 -14.5 41t-75.5 8h-64v41h64q43 0 243 17v-768h137v-41z" />
    <glyph glyph-name="ordmasculine" unicode="&#xba;" horiz-adv-x="573" 
d="M287 1348q113 0 194.5 -75.5t81.5 -182.5q0 -110 -81.5 -186.5t-194.5 -76.5t-195 77t-82 186q0 107 82 182.5t195 75.5zM287 1313q-36 0 -61 -15t-37 -34t-18.5 -54.5t-7.5 -57.5t-1 -62q0 -42 1 -65t7.5 -59t18.5 -55t37 -34t61 -15t61 15t37 34t18.5 55t7.5 59t1 65
q0 40 -1 62t-7.5 57.5t-18.5 54.5t-37 34t-61 15z" />
    <glyph glyph-name="guillemotright" unicode="&#xbb;" 
d="M702 442q-60 60 -134 168.5t-74 124.5q0 3 3.5 11t8.5 8q14 0 59.5 -42.5t114.5 -110t117 -105.5q7 -6 16 -12.5t13.5 -10.5t10 -8.5t8 -7t5 -5.5t3.5 -5t1 -5q0 -4 -2 -7t-6.5 -7t-10.5 -8.5t-16.5 -13t-21.5 -17.5q-48 -38 -117 -105.5t-114.5 -110t-59.5 -42.5
q-5 0 -8.5 8t-3.5 11q0 16 74 124t134 168zM381 442q-60 60 -134.5 168.5t-74.5 124.5q0 3 3.5 11t8.5 8q14 0 59.5 -42.5t114.5 -110t117 -105.5q7 -6 16 -12.5t13.5 -10.5t10 -8.5t8 -7t5 -5.5t3.5 -5t1 -5q0 -4 -2 -7t-6.5 -7t-10.5 -8.5t-16.5 -13t-21.5 -17.5
q-48 -38 -117 -105.5t-114.5 -110t-59.5 -42.5q-5 0 -8.5 8t-3.5 11q0 16 74.5 124t134.5 168z" />
    <glyph glyph-name="onequarter" unicode="&#xbc;" horiz-adv-x="1536" 
d="M1118 698l-307 -448h311v448h-4zM774 209v74l369 544h114v-577h119v96h41v-229h-41v92h-119v-168h97v-41h-330v41h98v168h-348zM242 -27l923 1375h103l-924 -1375h-102zM530 539h-436v41h146v661q0 33 -14.5 41t-75.5 8h-64v41h64q43 0 243 17v-768h137v-41z" />
    <glyph glyph-name="onehalf" unicode="&#xbd;" horiz-adv-x="1536" 
d="M242 -27l923 1375h103l-924 -1375h-102zM530 539h-436v41h146v661q0 33 -14.5 41t-75.5 8h-64v41h64q43 0 243 17v-768h137v-41zM1452 221l-18 -221h-553v72l112 102q176 163 234.5 239t58.5 158q0 75 -44.5 133t-117.5 58q-72 0 -120 -43.5t-48 -85.5v-19q38 15 54 15
q31 0 49 -19.5t18 -44.5q0 -30 -24.5 -49.5t-53.5 -19.5q-42 0 -72 32.5t-30 77.5q0 66 41 113.5t100.5 68.5t128.5 21q51 0 101 -12t95 -36.5t73 -68.5t28 -100q0 -65 -52 -128.5t-193 -178.5l-197 -158v-4h307q46 0 58.5 17.5t17.5 80.5h47z" />
    <glyph glyph-name="threequarters" unicode="&#xbe;" horiz-adv-x="1536" 
d="M1118 698l-307 -448h311v448h-4zM774 209v74l369 544h114v-577h119v96h41v-229h-41v92h-119v-168h97v-41h-330v41h98v168h-348zM242 -27l923 1375h103l-924 -1375h-102zM547 1167q0 -70 -55.5 -120.5t-133.5 -69.5v-4q110 -20 173 -68.5t63 -146.5q0 -35 -22.5 -75
t-63 -76.5t-109 -60.5t-149.5 -24q-121 0 -185.5 51t-64.5 113q0 31 28.5 54.5t63.5 23.5q28 0 55 -16.5t27 -40.5q0 -28 -13 -41.5t-29 -14t-29 -5t-13 -17.5q0 -30 54.5 -49t93.5 -19q98 0 138 49.5t40 169.5q0 78 -49 119t-140 41q-23 0 -45.5 -8t-25.5 -8q-15 0 -24.5 2
t-18.5 14t-9 35q0 12 12 20.5t31 8.5q10 0 32 -8.5t34 -8.5q75 0 118.5 40t43.5 142q0 76 -34 108t-99 32q-30 0 -61 -11t-31 -34q0 -9 8.5 -14.5t19 -8.5t19 -13.5t8.5 -27.5q0 -27 -21.5 -45t-50.5 -18q-38 0 -61 21t-23 61q0 16 11.5 36t36.5 42t73.5 36.5t112.5 14.5
q61 0 121 -21.5t101.5 -64t41.5 -95.5z" />
    <glyph glyph-name="questiondown" unicode="&#xbf;" horiz-adv-x="909" 
d="M532 549h48q10 -43 10 -133q0 -75 -13 -129t-52 -111.5t-92.5 -111.5t-151.5 -138q-45 -39 -45 -108q0 -23 8 -51t27.5 -59.5t48 -57.5t74 -43t100.5 -17q78 0 146.5 45t68.5 84q0 13 -12 17.5t-30 6t-36.5 6.5t-33 23.5t-17.5 51.5q-4 41 24 68.5t68 27.5q53 0 81.5 -36
t28.5 -91q0 -72 -47.5 -129.5t-115 -86t-136.5 -28.5q-141 0 -242.5 97.5t-101.5 240.5q0 32 5 61.5t10.5 53t20 50t23 43t31.5 41t33 36t39.5 36t40 33t44.5 34.5t44 34q68 54 85 99t17 141zM537 965q51 0 83.5 -33.5t32.5 -85.5q0 -46 -35.5 -80.5t-80.5 -34.5
q-46 0 -85.5 33.5t-39.5 81.5q0 52 37 85.5t88 33.5z" />
    <glyph glyph-name="Agrave" unicode="&#xc0;" horiz-adv-x="1366" 
d="M434 555h352l-168 555h-4zM446 0h-399v47h162l444 1339h80l422 -1339h143v-47h-516v47h166l-141 451h-391l-146 -451h176v-47zM836 1434h-72l-272 165q-31 20 -42.5 27.5t-30.5 23t-25.5 29t-6.5 29.5q0 31 20.5 50.5t51.5 19.5q9 0 17 -2.5t16 -9t12.5 -10t14 -13.5
t11.5 -12z" />
    <glyph glyph-name="Aacute" unicode="&#xc1;" horiz-adv-x="1366" 
d="M434 555h352l-168 555h-4zM446 0h-399v47h162l444 1339h80l422 -1339h143v-47h-516v47h166l-141 451h-391l-146 -451h176v-47zM532 1434l306 297q2 2 11.5 12t14 13.5t12.5 10t16 9t17 2.5q31 0 51.5 -19.5t20.5 -50.5q0 -21 -16 -41.5t-32.5 -31.5t-55.5 -36l-273 -165
h-72z" />
    <glyph glyph-name="Acircumflex" unicode="&#xc2;" horiz-adv-x="1366" 
d="M434 555h352l-168 555h-4zM446 0h-399v47h162l444 1339h80l422 -1339h143v-47h-516v47h166l-141 451h-391l-146 -451h176v-47zM629 1774h114l248 -340h-65l-240 215l-240 -215h-69z" />
    <glyph glyph-name="Atilde" unicode="&#xc3;" horiz-adv-x="1366" 
d="M434 555h352l-168 555h-4zM446 0h-399v47h162l444 1339h80l422 -1339h143v-47h-516v47h166l-141 451h-391l-146 -451h176v-47zM981 1692h59q-21 -88 -76.5 -148.5t-140.5 -60.5q-66 0 -151 47q-1 1 -14.5 7.5t-15.5 8t-14 7t-15.5 7t-13.5 5.5t-15.5 5t-13.5 3.5t-15 3
t-14 0.5q-40 0 -71.5 -27.5t-39.5 -66.5h-55q16 89 72.5 144.5t144.5 55.5q45 0 137 -47q88 -47 133 -47q47 0 71.5 25.5t47.5 77.5z" />
    <glyph glyph-name="Adieresis" unicode="&#xc4;" horiz-adv-x="1366" 
d="M434 555h352l-168 555h-4zM446 0h-399v47h162l444 1339h80l422 -1339h143v-47h-516v47h166l-141 451h-391l-146 -451h176v-47zM494 1470q-40 0 -67.5 27.5t-27.5 67.5t27 69t68 29q39 0 67.5 -29.5t28.5 -68.5t-28.5 -67t-67.5 -28zM893 1470q-40 0 -67 27.5t-27 67.5
q0 41 26.5 69.5t67.5 28.5q39 0 67.5 -29.5t28.5 -68.5t-28.5 -67t-67.5 -28z" />
    <glyph glyph-name="Aring" unicode="&#xc5;" horiz-adv-x="1366" 
d="M434 555h352l-168 555h-4zM446 0h-399v47h162l444 1339h80l422 -1339h143v-47h-516v47h166l-141 451h-391l-146 -451h176v-47zM684 1753q-58 0 -97.5 -40t-39.5 -97q0 -58 39.5 -97.5t97.5 -39.5q57 0 97 39.5t40 97.5q0 57 -40 97t-97 40zM684 1417q-84 0 -141.5 57.5
t-57.5 141.5q0 83 58 141t141 58q82 0 140.5 -58.5t58.5 -140.5q0 -83 -58.5 -141t-140.5 -58z" />
    <glyph glyph-name="AE" unicode="&#xc6;" horiz-adv-x="1820" 
d="M317 47v-47h-350v47h137l480 969q43 88 43 145q0 39 -13.5 67.5t-32 44.5t-51.5 26.5t-57.5 14t-64.5 7.5v47h1261v-334h-45q-14 89 -43.5 147.5t-77 88t-100.5 40.5t-129 11h-244v-590q39 0 58.5 0.5t49 1.5t43.5 4t34.5 8.5t30 13.5t23 20t19.5 28t13.5 37t11 47
t6.5 59h45v-518h-45q-1 82 -16.5 131t-54 74.5t-86.5 33.5t-132 9v-633h225q74 0 122 3.5t94 16t74 34.5t53 60.5t41.5 91.5t29.5 130h55l-28 -383h-1051v47h186v438h-452l-215 -438h153zM410 543h421v774h-38z" />
    <glyph glyph-name="Ccedilla" unicode="&#xc7;" horiz-adv-x="1251" 
d="M1096 1352v-348h-47q-35 159 -124 253.5t-241 94.5q-91 0 -164 -50.5t-108 -115.5q-84 -158 -84 -553q0 -97 5 -168t18 -144.5t38.5 -123.5t65 -90.5t100 -60t139.5 -19.5q72 0 135 28.5t109 77.5t79 109.5t54 130.5h49v-373h-55l-57 84q-135 -115 -322 -115q-33 0 -45 2
l-49 -106q50 12 78 12q49 0 100 -36t51 -105q0 -48 -22.5 -83.5t-60.5 -53.5t-79 -26.5t-86 -8.5q-97 0 -167 30l28 62q92 -25 119 -25q50 0 87.5 20.5t37.5 65.5q0 39 -28 59.5t-60 20.5q-36 -4 -62 -10l-36 10l81 185q-149 27 -259 130t-165 252.5t-55 327.5
q0 146 53 279.5t138.5 226t193 147t215.5 54.5q87 0 154 -26t147 -83l70 62h31z" />
    <glyph glyph-name="Egrave" unicode="&#xc8;" horiz-adv-x="1251" 
d="M1128 0h-1067v47h181v1274h-181v47h1039v-334h-45q-13 89 -42 147.5t-76.5 88t-100.5 40.5t-129 11h-267v-590q76 0 110 2t75.5 12.5t58.5 34t32.5 64t24.5 106.5h45v-518h-45q-3 55 -12 94.5t-27 67t-39.5 44t-57.5 26t-73 12.5t-92 4v-633h248q74 0 121.5 3.5t93.5 16
t74 34.5t53.5 60t42 91.5t29.5 130.5h53zM778 1434h-71l-273 165q-39 25 -55.5 36t-32.5 31.5t-16 41.5q0 31 20 50.5t51 19.5q9 0 17 -2.5t17 -9t12.5 -9.5t14 -14t11.5 -12z" />
    <glyph glyph-name="Eacute" unicode="&#xc9;" horiz-adv-x="1251" 
d="M1128 0h-1067v47h181v1274h-181v47h1039v-334h-45q-13 89 -42 147.5t-76.5 88t-100.5 40.5t-129 11h-267v-590q76 0 110 2t75.5 12.5t58.5 34t32.5 64t24.5 106.5h45v-518h-45q-3 55 -12 94.5t-27 67t-39.5 44t-57.5 26t-73 12.5t-92 4v-633h248q74 0 121.5 3.5t93.5 16
t74 34.5t53.5 60t42 91.5t29.5 130.5h53zM475 1434l305 297q1 1 11.5 12t14 14t12.5 9.5t17 9t17 2.5q31 0 51.5 -19.5t20.5 -50.5q0 -16 -6.5 -29.5t-25.5 -29t-30.5 -23t-42.5 -27.5l-272 -165h-72z" />
    <glyph glyph-name="Ecircumflex" unicode="&#xca;" horiz-adv-x="1251" 
d="M1128 0h-1067v47h181v1274h-181v47h1039v-334h-45q-13 89 -42 147.5t-76.5 88t-100.5 40.5t-129 11h-267v-590q76 0 110 2t75.5 12.5t58.5 34t32.5 64t24.5 106.5h45v-518h-45q-3 55 -12 94.5t-27 67t-39.5 44t-57.5 26t-73 12.5t-92 4v-633h248q74 0 121.5 3.5t93.5 16
t74 34.5t53.5 60t42 91.5t29.5 130.5h53zM571 1774h115l248 -340h-66l-239 215l-240 -215h-70z" />
    <glyph glyph-name="Edieresis" unicode="&#xcb;" horiz-adv-x="1251" 
d="M1128 0h-1067v47h181v1274h-181v47h1039v-334h-45q-13 89 -42 147.5t-76.5 88t-100.5 40.5t-129 11h-267v-590q76 0 110 2t75.5 12.5t58.5 34t32.5 64t24.5 106.5h45v-518h-45q-3 55 -12 94.5t-27 67t-39.5 44t-57.5 26t-73 12.5t-92 4v-633h248q74 0 121.5 3.5t93.5 16
t74 34.5t53.5 60t42 91.5t29.5 130.5h53zM426 1470q-40 0 -67 27.5t-27 67.5q0 41 26.5 69.5t67.5 28.5q39 0 67.5 -29.5t28.5 -68.5t-28.5 -67t-67.5 -28zM825 1470q-40 0 -67 27.5t-27 67.5q0 41 26.5 69.5t67.5 28.5q39 0 68 -29.5t29 -68.5t-29 -67t-68 -28z" />
    <glyph glyph-name="Igrave" unicode="&#xcc;" horiz-adv-x="681" 
d="M616 47v-47h-550v47h176v1274h-176v47h550v-47h-176v-1274h176zM494 1434h-72l-272 165q-31 20 -42.5 27.5t-30.5 23t-25.5 29t-6.5 29.5q0 31 20.5 50.5t51.5 19.5q9 0 17 -2.5t16 -9t12.5 -10t14 -13.5t11.5 -12z" />
    <glyph glyph-name="Iacute" unicode="&#xcd;" horiz-adv-x="681" 
d="M616 47v-47h-550v47h176v1274h-176v47h550v-47h-176v-1274h176zM190 1434l306 297q2 2 11.5 12t14 13.5t12.5 10t16 9t17 2.5q31 0 51.5 -19.5t20.5 -50.5q0 -21 -16 -41.5t-32.5 -31.5t-55.5 -36l-273 -165h-72z" />
    <glyph glyph-name="Icircumflex" unicode="&#xce;" horiz-adv-x="681" 
d="M616 47v-47h-550v47h176v1274h-176v47h550v-47h-176v-1274h176zM287 1774h114l248 -340h-65l-240 215l-240 -215h-69z" />
    <glyph glyph-name="Idieresis" unicode="&#xcf;" horiz-adv-x="681" 
d="M616 47v-47h-550v47h176v1274h-176v47h550v-47h-176v-1274h176zM141 1470q-40 0 -67 27.5t-27 67.5q0 41 26.5 69.5t67.5 28.5q39 0 68 -29.5t29 -68.5t-29 -67t-68 -28zM541 1470q-40 0 -67.5 27.5t-27.5 67.5t27 69t68 29q39 0 67.5 -29.5t28.5 -68.5t-28.5 -67
t-67.5 -28z" />
    <glyph glyph-name="Eth" unicode="&#xd0;" horiz-adv-x="1366" 
d="M242 47v629h-203v59h203v586h-158v47h549q290 0 464.5 -182.5t174.5 -489.5q0 -326 -213 -549q-143 -147 -430 -147h-545v47h158zM440 1321v-586h287v-59h-287v-629h201q68 0 124 14t91.5 34.5t64.5 51.5t44 55.5t30 57.5q52 116 52 473q0 55 -1.5 97t-7 94t-15 91
t-26.5 82.5t-40.5 74.5t-57.5 60.5t-77.5 48t-101 29.5t-126.5 11h-154z" />
    <glyph glyph-name="Ntilde" unicode="&#xd1;" horiz-adv-x="1366" 
d="M238 47v1274h-160v47h399l582 -991h4v944h-160v47h379v-47h-158v-1352h-53l-768 1311h-4v-1233h158v-47h-379v47h160zM961 1692h59q-21 -88 -76.5 -148.5t-140.5 -60.5q-67 0 -152 47q-1 1 -14.5 7.5t-15.5 8t-14 7t-15.5 7t-13.5 5.5t-15.5 5t-13.5 3.5t-15 3t-14 0.5
q-40 0 -71 -27.5t-39 -66.5h-56q16 89 72.5 144.5t144.5 55.5q46 0 138 -47q88 -47 133 -47q47 0 71.5 25.5t47.5 77.5z" />
    <glyph glyph-name="Ograve" unicode="&#xd2;" horiz-adv-x="1366" 
d="M682 -31q-128 0 -239.5 61t-187 161.5t-118.5 229.5t-43 265t43 264.5t118.5 228t187 160t239.5 60.5t239.5 -60.5t187 -160t118.5 -228t43 -264.5t-43 -265t-118.5 -229.5t-187 -161.5t-239.5 -61zM682 16q84 0 145.5 29.5t101.5 83t64 138.5t33.5 184.5t9.5 232.5
t-9.5 233t-33.5 184.5t-64 138t-101.5 83t-145.5 29.5t-145.5 -29.5t-101.5 -83t-64 -138t-33.5 -184.5t-9.5 -233t9.5 -232.5t33.5 -184.5t64 -138.5t101.5 -83t145.5 -29.5zM836 1434h-72l-272 165q-31 20 -42.5 27.5t-30.5 23t-25.5 29t-6.5 29.5q0 31 20.5 50.5
t51.5 19.5q9 0 17 -2.5t16 -9t12.5 -10t14 -13.5t11.5 -12z" />
    <glyph glyph-name="Oacute" unicode="&#xd3;" horiz-adv-x="1366" 
d="M682 -31q-128 0 -239.5 61t-187 161.5t-118.5 229.5t-43 265t43 264.5t118.5 228t187 160t239.5 60.5t239.5 -60.5t187 -160t118.5 -228t43 -264.5t-43 -265t-118.5 -229.5t-187 -161.5t-239.5 -61zM682 16q84 0 145.5 29.5t101.5 83t64 138.5t33.5 184.5t9.5 232.5
t-9.5 233t-33.5 184.5t-64 138t-101.5 83t-145.5 29.5t-145.5 -29.5t-101.5 -83t-64 -138t-33.5 -184.5t-9.5 -233t9.5 -232.5t33.5 -184.5t64 -138.5t101.5 -83t145.5 -29.5zM532 1434l306 297q2 2 11.5 12t14 13.5t12.5 10t16 9t17 2.5q31 0 51.5 -19.5t20.5 -50.5
q0 -21 -16 -41.5t-32.5 -31.5t-55.5 -36l-273 -165h-72z" />
    <glyph glyph-name="Ocircumflex" unicode="&#xd4;" horiz-adv-x="1366" 
d="M682 -31q-128 0 -239.5 61t-187 161.5t-118.5 229.5t-43 265t43 264.5t118.5 228t187 160t239.5 60.5t239.5 -60.5t187 -160t118.5 -228t43 -264.5t-43 -265t-118.5 -229.5t-187 -161.5t-239.5 -61zM682 16q84 0 145.5 29.5t101.5 83t64 138.5t33.5 184.5t9.5 232.5
t-9.5 233t-33.5 184.5t-64 138t-101.5 83t-145.5 29.5t-145.5 -29.5t-101.5 -83t-64 -138t-33.5 -184.5t-9.5 -233t9.5 -232.5t33.5 -184.5t64 -138.5t101.5 -83t145.5 -29.5zM629 1774h114l248 -340h-65l-240 215l-240 -215h-69z" />
    <glyph glyph-name="Otilde" unicode="&#xd5;" horiz-adv-x="1366" 
d="M682 -31q-128 0 -239.5 61t-187 161.5t-118.5 229.5t-43 265t43 264.5t118.5 228t187 160t239.5 60.5t239.5 -60.5t187 -160t118.5 -228t43 -264.5t-43 -265t-118.5 -229.5t-187 -161.5t-239.5 -61zM682 16q84 0 145.5 29.5t101.5 83t64 138.5t33.5 184.5t9.5 232.5
t-9.5 233t-33.5 184.5t-64 138t-101.5 83t-145.5 29.5t-145.5 -29.5t-101.5 -83t-64 -138t-33.5 -184.5t-9.5 -233t9.5 -232.5t33.5 -184.5t64 -138.5t101.5 -83t145.5 -29.5zM961 1692h59q-21 -88 -76.5 -148.5t-140.5 -60.5q-67 0 -152 47q-1 1 -14.5 7.5t-15.5 8t-14 7
t-15.5 7t-13.5 5.5t-15.5 5t-13.5 3.5t-15 3t-14 0.5q-40 0 -71 -27.5t-39 -66.5h-56q16 89 72.5 144.5t144.5 55.5q46 0 138 -47q88 -47 133 -47q47 0 71.5 25.5t47.5 77.5z" />
    <glyph glyph-name="Odieresis" unicode="&#xd6;" horiz-adv-x="1366" 
d="M682 -31q-128 0 -239.5 61t-187 161.5t-118.5 229.5t-43 265t43 264.5t118.5 228t187 160t239.5 60.5t239.5 -60.5t187 -160t118.5 -228t43 -264.5t-43 -265t-118.5 -229.5t-187 -161.5t-239.5 -61zM682 16q84 0 145.5 29.5t101.5 83t64 138.5t33.5 184.5t9.5 232.5
t-9.5 233t-33.5 184.5t-64 138t-101.5 83t-145.5 29.5t-145.5 -29.5t-101.5 -83t-64 -138t-33.5 -184.5t-9.5 -233t9.5 -232.5t33.5 -184.5t64 -138.5t101.5 -83t145.5 -29.5zM483 1470q-40 0 -67 27.5t-27 67.5q0 41 26.5 69.5t67.5 28.5q39 0 68 -29.5t29 -68.5t-29 -67
t-68 -28zM883 1470q-40 0 -67.5 27.5t-27.5 67.5t27 69t68 29q39 0 67.5 -29.5t28.5 -68.5t-28.5 -67t-67.5 -28z" />
    <glyph glyph-name="multiply" unicode="&#xd7;" horiz-adv-x="1126" 
d="M481 498l-393 409l82 86l393 -411l393 411l82 -86l-393 -409l393 -410l-82 -86l-393 410l-393 -410l-82 86z" />
    <glyph glyph-name="Oslash" unicode="&#xd8;" horiz-adv-x="1366" 
d="M987 1116l-573 -950q81 -150 268 -150q84 0 145.5 29.5t101.5 83t64 138.5t33.5 184.5t9.5 232.5q0 288 -49 432zM377 254l573 950q-82 148 -268 148q-84 0 -145.5 -29.5t-101.5 -83t-64 -138t-33.5 -184.5t-9.5 -233q0 -286 49 -430zM1126 1501h91l-158 -264
q100 -103 155.5 -248.5t55.5 -302.5q0 -136 -43 -265t-118.5 -229.5t-187 -161.5t-239.5 -61q-177 0 -317 115l-129 -215h-91l160 266q-98 100 -154.5 247t-56.5 304q0 136 43 264.5t118.5 228t187 160t239.5 60.5q173 0 317 -111z" />
    <glyph glyph-name="Ugrave" unicode="&#xd9;" horiz-adv-x="1366" 
d="M76 1368h516v-47h-160v-1016q0 -19 5.5 -46.5t24 -68t47.5 -73t83.5 -56.5t124.5 -24q89 0 153.5 25t101 64.5t57.5 104t27.5 127.5t6.5 150v813h-158v47h371v-47h-158v-877q0 -242 -109.5 -358.5t-340.5 -116.5q-198 0 -316.5 102t-118.5 273v977h-157v47zM836 1434h-72
l-272 165q-31 20 -42.5 27.5t-30.5 23t-25.5 29t-6.5 29.5q0 31 20.5 50.5t51.5 19.5q9 0 17 -2.5t16 -9t12.5 -10t14 -13.5t11.5 -12z" />
    <glyph glyph-name="Uacute" unicode="&#xda;" horiz-adv-x="1366" 
d="M76 1368h516v-47h-160v-1016q0 -19 5.5 -46.5t24 -68t47.5 -73t83.5 -56.5t124.5 -24q89 0 153.5 25t101 64.5t57.5 104t27.5 127.5t6.5 150v813h-158v47h371v-47h-158v-877q0 -242 -109.5 -358.5t-340.5 -116.5q-198 0 -316.5 102t-118.5 273v977h-157v47zM573 1434
l306 297q2 2 11.5 12t14 13.5t12.5 10t16 9t17 2.5q31 0 51.5 -19.5t20.5 -50.5q0 -21 -16 -41.5t-32.5 -31.5t-55.5 -36l-273 -165h-72z" />
    <glyph glyph-name="Ucircumflex" unicode="&#xdb;" horiz-adv-x="1366" 
d="M76 1368h516v-47h-160v-1016q0 -19 5.5 -46.5t24 -68t47.5 -73t83.5 -56.5t124.5 -24q89 0 153.5 25t101 64.5t57.5 104t27.5 127.5t6.5 150v813h-158v47h371v-47h-158v-877q0 -242 -109.5 -358.5t-340.5 -116.5q-198 0 -316.5 102t-118.5 273v977h-157v47zM629 1774h114
l248 -340h-65l-240 215l-240 -215h-69z" />
    <glyph glyph-name="Udieresis" unicode="&#xdc;" horiz-adv-x="1366" 
d="M76 1368h516v-47h-160v-1016q0 -19 5.5 -46.5t24 -68t47.5 -73t83.5 -56.5t124.5 -24q89 0 153.5 25t101 64.5t57.5 104t27.5 127.5t6.5 150v813h-158v47h371v-47h-158v-877q0 -242 -109.5 -358.5t-340.5 -116.5q-198 0 -316.5 102t-118.5 273v977h-157v47zM483 1470
q-40 0 -67 27.5t-27 67.5q0 41 26.5 69.5t67.5 28.5q39 0 68 -29.5t29 -68.5t-29 -67t-68 -28zM883 1470q-40 0 -67.5 27.5t-27.5 67.5t27 69t68 29q39 0 67.5 -29.5t28.5 -68.5t-28.5 -67t-67.5 -28z" />
    <glyph glyph-name="Yacute" unicode="&#xdd;" horiz-adv-x="1366" 
d="M762 707l328 614h-203v47h422v-47h-164l-357 -686v-588h183v-47h-561v47h180v588l-395 686h-152v47h553v-47h-180zM594 1434l305 297q1 1 11.5 12t14 14t12.5 9.5t17 9t17 2.5q31 0 51 -19.5t20 -50.5q0 -21 -16 -41.5t-32.5 -31.5t-55.5 -36l-272 -165h-72z" />
    <glyph glyph-name="Thorn" unicode="&#xde;" horiz-adv-x="1138" 
d="M66 1321v47h518v-47h-158v-240h184q110 0 197 -20.5t142.5 -55t92 -82t51.5 -98.5t15 -108q0 -53 -19 -105t-63.5 -103.5t-109.5 -90.5t-166.5 -63.5t-225.5 -24.5h-98v-283h182v-47h-557v47h176v1274h-161zM426 1034v-657h70q99 1 169 16t114 41.5t69 71t34 95.5t9 124
q0 48 -5.5 86.5t-14 69t-25 53t-34 39t-46 27.5t-55 18t-66 10.5t-75 4.5t-87.5 1h-57z" />
    <glyph glyph-name="germandbls" unicode="&#xdf;" 
d="M322 0h-271v47h119v1024q0 153 94.5 251.5t241.5 98.5q101 0 185.5 -36.5t140 -115t55.5 -186.5q0 -34 -8.5 -69.5t-29 -74t-51 -71.5t-78 -62.5t-106.5 -47.5v-4q70 -10 127 -38t94.5 -67t63 -88t36.5 -99t11 -102q0 -165 -85 -276t-240 -111q-87 0 -148 53t-61 128
q0 118 106 118q33 0 57.5 -24.5t24.5 -57.5q0 -36 -30.5 -67t-30.5 -57q0 -25 24.5 -38.5t52.5 -13.5q144 0 144 308q0 45 -0.5 71.5t-4.5 72.5t-11.5 75t-22 65t-35.5 57.5t-53.5 37.5t-73.5 18q-36 4 -59 4q-28 0 -39.5 6t-11.5 23q0 9 7.5 14t15.5 5.5t24 0.5
q71 0 116.5 26.5t69.5 92.5q16 46 21.5 86.5t5.5 140.5q0 77 -21.5 132t-54.5 81t-61.5 36.5t-53.5 10.5q-47 0 -80 -9t-60.5 -33t-41.5 -70.5t-14 -116.5v-1149z" />
    <glyph glyph-name="agrave" unicode="&#xe0;" horiz-adv-x="909" 
d="M858 141h35q-5 -72 -54.5 -120t-119.5 -48q-110 0 -133 125q-102 -125 -277 -125q-107 0 -173 47t-66 154q4 141 140.5 219t373.5 78v195q0 66 -43 95.5t-105 29.5q-21 0 -49.5 -3.5t-62 -11t-56 -23t-22.5 -36.5q0 -5 15 -15t30.5 -29.5t15.5 -49.5q0 -38 -23 -62
t-61 -24q-40 0 -63 27t-23 71q0 24 10.5 49t35 52t61 47.5t94 34t127.5 13.5q58 0 103 -7.5t74 -17.5t49.5 -28.5t30 -33t15 -39t6 -37.5t0.5 -37v-488q0 -38 1.5 -53.5t11 -28t30.5 -12.5q46 0 72 92zM584 238v190q-361 -5 -361 -213q0 -74 43.5 -118t114.5 -44
q90 0 158 60q14 14 20 21t15.5 36t9.5 68zM606 897h-71l-273 166q-32 20 -42.5 27t-29.5 22.5t-25.5 29t-6.5 29.5q0 31 20 50.5t51 19.5q9 0 17 -2.5t17 -9t12.5 -9.5t14 -14t11.5 -12z" />
    <glyph glyph-name="aacute" unicode="&#xe1;" horiz-adv-x="909" 
d="M858 141h35q-5 -72 -54.5 -120t-119.5 -48q-110 0 -133 125q-102 -125 -277 -125q-107 0 -173 47t-66 154q4 141 140.5 219t373.5 78v195q0 66 -43 95.5t-105 29.5q-21 0 -49.5 -3.5t-62 -11t-56 -23t-22.5 -36.5q0 -5 15 -15t30.5 -29.5t15.5 -49.5q0 -38 -23 -62
t-61 -24q-40 0 -63 27t-23 71q0 24 10.5 49t35 52t61 47.5t94 34t127.5 13.5q58 0 103 -7.5t74 -17.5t49.5 -28.5t30 -33t15 -39t6 -37.5t0.5 -37v-488q0 -38 1.5 -53.5t11 -28t30.5 -12.5q46 0 72 92zM584 238v190q-361 -5 -361 -213q0 -74 43.5 -118t114.5 -44
q90 0 158 60q14 14 20 21t15.5 36t9.5 68zM303 897l305 297q1 1 11.5 12t14 14t12.5 9.5t17 9t17 2.5q31 0 51.5 -19.5t20.5 -50.5q0 -29 -22.5 -50t-72.5 -52q-2 -1 -3.5 -2l-3 -2t-3.5 -2l-272 -166h-72z" />
    <glyph glyph-name="acircumflex" unicode="&#xe2;" horiz-adv-x="909" 
d="M858 141h35q-5 -72 -54.5 -120t-119.5 -48q-110 0 -133 125q-102 -125 -277 -125q-107 0 -173 47t-66 154q4 141 140.5 219t373.5 78v195q0 66 -43 95.5t-105 29.5q-21 0 -49.5 -3.5t-62 -11t-56 -23t-22.5 -36.5q0 -5 15 -15t30.5 -29.5t15.5 -49.5q0 -38 -23 -62
t-61 -24q-40 0 -63 27t-23 71q0 24 10.5 49t35 52t61 47.5t94 34t127.5 13.5q58 0 103 -7.5t74 -17.5t49.5 -28.5t30 -33t15 -39t6 -37.5t0.5 -37v-488q0 -38 1.5 -53.5t11 -28t30.5 -12.5q46 0 72 92zM584 238v190q-361 -5 -361 -213q0 -74 43.5 -118t114.5 -44
q90 0 158 60q14 14 20 21t15.5 36t9.5 68zM399 1237h115l248 -340h-66l-239 215l-240 -215h-70z" />
    <glyph glyph-name="atilde" unicode="&#xe3;" horiz-adv-x="909" 
d="M858 141h35q-5 -72 -54.5 -120t-119.5 -48q-110 0 -133 125q-102 -125 -277 -125q-107 0 -173 47t-66 154q4 141 140.5 219t373.5 78v195q0 66 -43 95.5t-105 29.5q-21 0 -49.5 -3.5t-62 -11t-56 -23t-22.5 -36.5q0 -5 15 -15t30.5 -29.5t15.5 -49.5q0 -38 -23 -62
t-61 -24q-40 0 -63 27t-23 71q0 24 10.5 49t35 52t61 47.5t94 34t127.5 13.5q58 0 103 -7.5t74 -17.5t49.5 -28.5t30 -33t15 -39t6 -37.5t0.5 -37v-488q0 -38 1.5 -53.5t11 -28t30.5 -12.5q46 0 72 92zM584 238v190q-361 -5 -361 -213q0 -74 43.5 -118t114.5 -44
q90 0 158 60q14 14 20 21t15.5 36t9.5 68zM731 1155h60q-21 -88 -77 -148.5t-141 -60.5q-66 0 -151 47q-1 1 -14.5 7.5t-15.5 8t-14 7t-15.5 7t-13.5 5.5t-15.5 5t-13.5 3.5t-15 3t-14 0.5q-40 0 -71.5 -27.5t-39.5 -66.5h-55q16 89 73 145t144 56q45 0 137 -47
q88 -47 133 -47q48 0 72 25t47 77z" />
    <glyph glyph-name="adieresis" unicode="&#xe4;" horiz-adv-x="909" 
d="M858 141h35q-5 -72 -54.5 -120t-119.5 -48q-110 0 -133 125q-102 -125 -277 -125q-107 0 -173 47t-66 154q4 141 140.5 219t373.5 78v195q0 66 -43 95.5t-105 29.5q-21 0 -49.5 -3.5t-62 -11t-56 -23t-22.5 -36.5q0 -5 15 -15t30.5 -29.5t15.5 -49.5q0 -38 -23 -62
t-61 -24q-40 0 -63 27t-23 71q0 24 10.5 49t35 52t61 47.5t94 34t127.5 13.5q58 0 103 -7.5t74 -17.5t49.5 -28.5t30 -33t15 -39t6 -37.5t0.5 -37v-488q0 -38 1.5 -53.5t11 -28t30.5 -12.5q46 0 72 92zM584 238v190q-361 -5 -361 -213q0 -74 43.5 -118t114.5 -44
q90 0 158 60q14 14 20 21t15.5 36t9.5 68zM254 934q-40 0 -67 27t-27 67q0 41 26.5 69.5t67.5 28.5q39 0 67.5 -29.5t28.5 -68.5t-28.5 -66.5t-67.5 -27.5zM653 934q-40 0 -67 27t-27 67q0 41 26.5 69.5t67.5 28.5q39 0 68 -29.5t29 -68.5t-29 -66.5t-68 -27.5z" />
    <glyph glyph-name="aring" unicode="&#xe5;" horiz-adv-x="909" 
d="M858 141h35q-5 -72 -54.5 -120t-119.5 -48q-110 0 -133 125q-102 -125 -277 -125q-107 0 -173 47t-66 154q4 141 140.5 219t373.5 78v195q0 66 -43 95.5t-105 29.5q-21 0 -49.5 -3.5t-62 -11t-56 -23t-22.5 -36.5q0 -5 15 -15t30.5 -29.5t15.5 -49.5q0 -38 -23 -62
t-61 -24q-40 0 -63 27t-23 71q0 24 10.5 49t35 52t61 47.5t94 34t127.5 13.5q58 0 103 -7.5t74 -17.5t49.5 -28.5t30 -33t15 -39t6 -37.5t0.5 -37v-488q0 -38 1.5 -53.5t11 -28t30.5 -12.5q46 0 72 92zM584 238v190q-361 -5 -361 -213q0 -74 43.5 -118t114.5 -44
q90 0 158 60q14 14 20 21t15.5 36t9.5 68zM449 1237q-58 0 -98 -40t-40 -97q0 -58 39.5 -97.5t98.5 -39.5q57 0 97 39.5t40 97.5q0 57 -40 97t-97 40zM449 901q-84 0 -141.5 57.5t-57.5 141.5q0 83 58 140.5t141 57.5q82 0 140 -58t58 -140q0 -83 -58 -141t-140 -58z" />
    <glyph glyph-name="ae" unicode="&#xe6;" horiz-adv-x="1366" 
d="M575 238v190q-360 -5 -360 -213q0 -74 43.5 -118t114.5 -44q49 0 84.5 13.5t72.5 46.5q14 14 20 21t15.5 36t9.5 68zM735 526h381v70q0 103 -52 149t-136 46q-35 0 -65 -13t-47.5 -28.5t-32.5 -38.5t-19 -31.5t-8 -17.5q-18 -55 -21 -136zM1255 254h45
q-30 -139 -125.5 -210t-234.5 -71q-91 0 -182.5 50.5t-128.5 121.5q-59 -80 -151.5 -126t-176.5 -46q-107 0 -173.5 47.5t-66.5 153.5q4 141 140.5 219t373.5 78v195q0 66 -42.5 95.5t-104.5 29.5q-21 0 -49.5 -3.5t-62 -11t-56 -23t-22.5 -36.5q0 -5 15 -15t30.5 -29.5
t15.5 -49.5q0 -38 -23 -62t-61 -24q-40 0 -63 27t-23 71q0 24 10.5 49t35 52t61 47.5t94 34t127.5 13.5q173 5 237 -90q65 52 117.5 71.5t122.5 18.5q159 0 263.5 -99.5t105.5 -264.5h-572v-84q0 -49 1.5 -84.5t7.5 -77t16 -69.5t28 -56t43.5 -44.5t62 -27t83.5 -10.5
q90 0 175.5 70.5t106.5 169.5z" />
    <glyph glyph-name="ccedilla" unicode="&#xe7;" horiz-adv-x="909" 
d="M780 254h43q-19 -60 -44 -105t-64 -86t-98 -64t-136 -26q-8 0 -12 2l-49 -110q50 12 78 12q49 0 100 -36t51 -105q0 -48 -22.5 -83.5t-60.5 -53.5t-79 -26.5t-86 -8.5q-97 0 -168 30l29 62q93 -25 119 -25q50 0 87.5 20.5t37.5 65.5q0 39 -28 59.5t-60 20.5
q-36 -4 -62 -10l-37 10l82 185q-73 11 -132 43.5t-95.5 75t-61 94t-34.5 97t-10 87.5q0 104 31.5 186.5t78 130.5t105 80t106.5 43.5t88 11.5q53 0 107 -12.5t103.5 -37.5t80.5 -69t31 -100q0 -43 -25.5 -75.5t-66.5 -32.5q-42 0 -69.5 26.5t-27.5 69.5q0 27 10.5 48
t22.5 30t22.5 18.5t10.5 16.5q0 36 -62.5 57t-111.5 21q-141 0 -194.5 -99.5t-53.5 -312.5q0 -142 43 -246q49 -108 201 -117q89 -4 167 62t115 176z" />
    <glyph glyph-name="egrave" unicode="&#xe8;" horiz-adv-x="909" 
d="M793 254h45q-30 -139 -126 -210t-235 -71q-104 0 -198 51t-152.5 143t-58.5 202q0 122 49 226.5t142.5 170t211.5 65.5q159 0 263.5 -99.5t105.5 -264.5h-580v-84q0 -68 4.5 -117t19.5 -99t41.5 -81t73 -50.5t111.5 -19.5q90 0 176 69.5t107 168.5zM262 526h391v70
q0 103 -52 149t-136 46q-43 0 -79 -17.5t-57 -42.5t-32 -42.5t-14 -26.5q-18 -55 -21 -136zM606 897h-71l-273 166q-32 20 -42.5 27t-29.5 22.5t-25.5 29t-6.5 29.5q0 31 20 50.5t51 19.5q9 0 17 -2.5t17 -9t12.5 -9.5t14 -14t11.5 -12z" />
    <glyph glyph-name="eacute" unicode="&#xe9;" horiz-adv-x="909" 
d="M793 254h45q-30 -139 -126 -210t-235 -71q-104 0 -198 51t-152.5 143t-58.5 202q0 122 49 226.5t142.5 170t211.5 65.5q159 0 263.5 -99.5t105.5 -264.5h-580v-84q0 -68 4.5 -117t19.5 -99t41.5 -81t73 -50.5t111.5 -19.5q90 0 176 69.5t107 168.5zM262 526h391v70
q0 103 -52 149t-136 46q-43 0 -79 -17.5t-57 -42.5t-32 -42.5t-14 -26.5q-18 -55 -21 -136zM303 897l305 297q1 1 11.5 12t14 14t12.5 9.5t17 9t17 2.5q31 0 51.5 -19.5t20.5 -50.5q0 -29 -22.5 -50t-72.5 -52q-2 -1 -3.5 -2l-3 -2t-3.5 -2l-272 -166h-72z" />
    <glyph glyph-name="ecircumflex" unicode="&#xea;" horiz-adv-x="909" 
d="M793 254h45q-30 -139 -126 -210t-235 -71q-104 0 -198 51t-152.5 143t-58.5 202q0 122 49 226.5t142.5 170t211.5 65.5q159 0 263.5 -99.5t105.5 -264.5h-580v-84q0 -68 4.5 -117t19.5 -99t41.5 -81t73 -50.5t111.5 -19.5q90 0 176 69.5t107 168.5zM262 526h391v70
q0 103 -52 149t-136 46q-43 0 -79 -17.5t-57 -42.5t-32 -42.5t-14 -26.5q-18 -55 -21 -136zM430 1237h115l248 -340h-66l-240 215l-239 -215h-70z" />
    <glyph glyph-name="edieresis" unicode="&#xeb;" horiz-adv-x="909" 
d="M793 254h45q-30 -139 -126 -210t-235 -71q-104 0 -198 51t-152.5 143t-58.5 202q0 122 49 226.5t142.5 170t211.5 65.5q159 0 263.5 -99.5t105.5 -264.5h-580v-84q0 -68 4.5 -117t19.5 -99t41.5 -81t73 -50.5t111.5 -19.5q90 0 176 69.5t107 168.5zM262 526h391v70
q0 103 -52 149t-136 46q-43 0 -79 -17.5t-57 -42.5t-32 -42.5t-14 -26.5q-18 -55 -21 -136zM254 934q-40 0 -67 27t-27 67q0 41 26.5 69.5t67.5 28.5q39 0 67.5 -29.5t28.5 -68.5t-28.5 -66.5t-67.5 -27.5zM653 934q-40 0 -67 27t-27 67q0 41 26.5 69.5t67.5 28.5
q39 0 68 -29.5t29 -68.5t-29 -66.5t-68 -27.5z" />
    <glyph glyph-name="igrave" unicode="&#xec;" horiz-adv-x="569" 
d="M483 0h-417v47h137v717h-137v47h67q147 0 229 20v-784h121v-47zM436 897h-71l-273 166q-32 20 -42.5 27t-29.5 22.5t-25.5 29t-6.5 29.5q0 31 20 50.5t51 19.5q9 0 17 -2.5t17 -9t12.5 -9.5t14 -14t11.5 -12z" />
    <glyph glyph-name="iacute" unicode="&#xed;" horiz-adv-x="569" 
d="M483 0h-417v47h137v717h-137v47h67q147 0 229 20v-784h121v-47zM133 897l305 297q1 1 11.5 12t14 14t12.5 9.5t17 9t17 2.5q31 0 51.5 -19.5t20.5 -50.5q0 -29 -22.5 -50t-72.5 -52q-7 -4 -10 -6l-272 -166h-72z" />
    <glyph glyph-name="icircumflex" unicode="&#xee;" horiz-adv-x="569" 
d="M483 0h-417v47h137v717h-137v47h67q147 0 229 20v-784h121v-47zM229 1237h115l248 -340h-66l-239 215l-240 -215h-70z" />
    <glyph glyph-name="idieresis" unicode="&#xef;" horiz-adv-x="569" 
d="M483 0h-417v47h137v717h-137v47h67q147 0 229 20v-784h121v-47zM84 934q-40 0 -67 27t-27 67q0 41 26.5 69.5t67.5 28.5q39 0 67.5 -29.5t28.5 -68.5t-28.5 -66.5t-67.5 -27.5zM483 934q-40 0 -67 27t-27 67q0 41 26.5 69.5t67.5 28.5q39 0 68 -29.5t29 -68.5t-29 -66.5
t-68 -27.5z" />
    <glyph glyph-name="eth" unicode="&#xf0;" horiz-adv-x="909" 
d="M455 791q-34 0 -62 -8t-48 -20.5t-36 -34.5t-26.5 -42t-17.5 -51.5t-10.5 -54.5t-5.5 -60t-2.5 -58.5t-0.5 -58.5t0.5 -59t2.5 -59t5.5 -60t10.5 -54.5t17.5 -51.5t26.5 -42t36 -34.5t48 -20.5t62 -8t62 8t48 20.5t36 34.5t26.5 42t17.5 51.5t10.5 54.5t5.5 60t2.5 59
t0.5 59t-0.5 58.5t-2.5 58.5t-5.5 60t-10.5 54.5t-17.5 51.5t-26.5 42t-36 34.5t-48 20.5t-62 8zM291 961l-37 47l240 159q-88 137 -228 213l72 50q140 -84 246 -203l254 172l36 -47l-251 -170q227 -272 227 -670q0 -250 -98.5 -394.5t-296.5 -144.5q-80 0 -152.5 32.5
t-126 89t-85.5 137t-32 171.5q0 183 116 305.5t280 122.5q105 0 186 -59q-28 190 -115 346z" />
    <glyph glyph-name="ntilde" unicode="&#xf1;" 
d="M172 47v717h-113v47h43q78 0 115 4q54 3 115 16v-217h4q47 105 114 161t173 56q28 0 54 -3t62.5 -15t62.5 -32.5t45 -60.5t19 -93v-580h111v-47h-377v47h107v553q0 55 -8 90t-26 52.5t-39.5 23.5t-55.5 6q-66 0 -124 -54t-90 -133t-32 -157v-381h110v-47h-383v47h113z
M788 1155h60q-21 -88 -76.5 -148.5t-140.5 -60.5q-67 0 -152 47q-1 1 -14.5 7.5t-15.5 8t-14 7t-15.5 7t-13.5 5.5t-15.5 5t-13.5 3.5t-15 3t-14 0.5q-40 0 -71 -27.5t-39 -66.5h-56q16 89 73 145t144 56q46 0 138 -47q88 -47 133 -47q47 0 71 25t47 77z" />
    <glyph glyph-name="ograve" unicode="&#xf2;" horiz-adv-x="909" 
d="M455 831q164 0 279.5 -122.5t115.5 -305.5q0 -184 -115.5 -307t-279.5 -123q-80 0 -152.5 32.5t-126 89t-85.5 137t-32 171.5q0 183 116 305.5t280 122.5zM455 791q-34 0 -62 -8t-48 -20.5t-36 -34.5t-26.5 -42t-17.5 -51.5t-10.5 -54.5t-5.5 -60t-2.5 -58.5t-0.5 -58.5
t0.5 -59t2.5 -59t5.5 -60t10.5 -54.5t17.5 -51.5t26.5 -42t36 -34.5t48 -20.5t62 -8t62 8t48 20.5t36 34.5t26.5 42t17.5 51.5t10.5 54.5t5.5 60t2.5 59t0.5 59t-0.5 58.5t-2.5 58.5t-5.5 60t-10.5 54.5t-17.5 51.5t-26.5 42t-36 34.5t-48 20.5t-62 8zM606 897h-71l-273 166
q-32 20 -42.5 27t-29.5 22.5t-25.5 29t-6.5 29.5q0 31 20 50.5t51 19.5q9 0 17 -2.5t17 -9t12.5 -9.5t14 -14t11.5 -12z" />
    <glyph glyph-name="oacute" unicode="&#xf3;" horiz-adv-x="909" 
d="M455 831q164 0 279.5 -122.5t115.5 -305.5q0 -184 -115.5 -307t-279.5 -123q-80 0 -152.5 32.5t-126 89t-85.5 137t-32 171.5q0 183 116 305.5t280 122.5zM455 791q-34 0 -62 -8t-48 -20.5t-36 -34.5t-26.5 -42t-17.5 -51.5t-10.5 -54.5t-5.5 -60t-2.5 -58.5t-0.5 -58.5
t0.5 -59t2.5 -59t5.5 -60t10.5 -54.5t17.5 -51.5t26.5 -42t36 -34.5t48 -20.5t62 -8t62 8t48 20.5t36 34.5t26.5 42t17.5 51.5t10.5 54.5t5.5 60t2.5 59t0.5 59t-0.5 58.5t-2.5 58.5t-5.5 60t-10.5 54.5t-17.5 51.5t-26.5 42t-36 34.5t-48 20.5t-62 8zM303 897l305 297
q1 1 11.5 12t14 14t12.5 9.5t17 9t17 2.5q31 0 51.5 -19.5t20.5 -50.5q0 -29 -22.5 -50t-72.5 -52q-2 -1 -3.5 -2l-3 -2t-3.5 -2l-272 -166h-72z" />
    <glyph glyph-name="ocircumflex" unicode="&#xf4;" horiz-adv-x="909" 
d="M455 831q164 0 279.5 -122.5t115.5 -305.5q0 -184 -115.5 -307t-279.5 -123q-80 0 -152.5 32.5t-126 89t-85.5 137t-32 171.5q0 183 116 305.5t280 122.5zM455 791q-34 0 -62 -8t-48 -20.5t-36 -34.5t-26.5 -42t-17.5 -51.5t-10.5 -54.5t-5.5 -60t-2.5 -58.5t-0.5 -58.5
t0.5 -59t2.5 -59t5.5 -60t10.5 -54.5t17.5 -51.5t26.5 -42t36 -34.5t48 -20.5t62 -8t62 8t48 20.5t36 34.5t26.5 42t17.5 51.5t10.5 54.5t5.5 60t2.5 59t0.5 59t-0.5 58.5t-2.5 58.5t-5.5 60t-10.5 54.5t-17.5 51.5t-26.5 42t-36 34.5t-48 20.5t-62 8zM399 1237h115
l248 -340h-66l-239 215l-240 -215h-70z" />
    <glyph glyph-name="otilde" unicode="&#xf5;" horiz-adv-x="909" 
d="M455 831q164 0 279.5 -122.5t115.5 -305.5q0 -184 -115.5 -307t-279.5 -123q-80 0 -152.5 32.5t-126 89t-85.5 137t-32 171.5q0 183 116 305.5t280 122.5zM455 791q-34 0 -62 -8t-48 -20.5t-36 -34.5t-26.5 -42t-17.5 -51.5t-10.5 -54.5t-5.5 -60t-2.5 -58.5t-0.5 -58.5
t0.5 -59t2.5 -59t5.5 -60t10.5 -54.5t17.5 -51.5t26.5 -42t36 -34.5t48 -20.5t62 -8t62 8t48 20.5t36 34.5t26.5 42t17.5 51.5t10.5 54.5t5.5 60t2.5 59t0.5 59t-0.5 58.5t-2.5 58.5t-5.5 60t-10.5 54.5t-17.5 51.5t-26.5 42t-36 34.5t-48 20.5t-62 8zM731 1155h60
q-21 -88 -77 -148.5t-141 -60.5q-66 0 -151 47q-1 1 -14.5 7.5t-15.5 8t-14 7t-15.5 7t-13.5 5.5t-15.5 5t-13.5 3.5t-15 3t-14 0.5q-40 0 -71.5 -27.5t-39.5 -66.5h-55q16 89 73 145t144 56q45 0 137 -47q88 -47 133 -47q48 0 72 25t47 77z" />
    <glyph glyph-name="odieresis" unicode="&#xf6;" horiz-adv-x="909" 
d="M455 831q164 0 279.5 -122.5t115.5 -305.5q0 -184 -115.5 -307t-279.5 -123q-80 0 -152.5 32.5t-126 89t-85.5 137t-32 171.5q0 183 116 305.5t280 122.5zM455 791q-34 0 -62 -8t-48 -20.5t-36 -34.5t-26.5 -42t-17.5 -51.5t-10.5 -54.5t-5.5 -60t-2.5 -58.5t-0.5 -58.5
t0.5 -59t2.5 -59t5.5 -60t10.5 -54.5t17.5 -51.5t26.5 -42t36 -34.5t48 -20.5t62 -8t62 8t48 20.5t36 34.5t26.5 42t17.5 51.5t10.5 54.5t5.5 60t2.5 59t0.5 59t-0.5 58.5t-2.5 58.5t-5.5 60t-10.5 54.5t-17.5 51.5t-26.5 42t-36 34.5t-48 20.5t-62 8zM254 934q-40 0 -67 27
t-27 67q0 41 26.5 69.5t67.5 28.5q39 0 67.5 -29.5t28.5 -68.5t-28.5 -66.5t-67.5 -27.5zM653 934q-40 0 -67 27t-27 67q0 41 26.5 69.5t67.5 28.5q39 0 68 -29.5t29 -68.5t-29 -66.5t-68 -27.5z" />
    <glyph glyph-name="divide" unicode="&#xf7;" horiz-adv-x="1126" 
d="M442 897q0 53 35 89t86 36t87 -36.5t36 -88.5q0 -53 -36 -89t-87 -36t-86 35.5t-35 89.5zM442 98q0 53 35 89t86 36t87 -36.5t36 -88.5t-36 -88.5t-87 -36.5t-86 36t-35 89zM1038 438h-950v119h950v-119z" />
    <glyph glyph-name="oslash" unicode="&#xf8;" horiz-adv-x="909" 
d="M279 135l309 604q-49 52 -133 52q-34 0 -62 -8t-48 -20.5t-36 -34.5t-26.5 -42t-17.5 -51.5t-10.5 -54.5t-5.5 -60t-2.5 -58.5t-0.5 -58.5q0 -61 1 -95.5t9 -86t23 -86.5zM633 670l-311 -604q52 -52 133 -52q34 0 62 8t48 20.5t36 34.5t26.5 42t17.5 51.5t10.5 54.5
t5.5 60t2.5 59t0.5 59q0 61 -1 95.5t-8.5 85.5t-21.5 86zM178 -209h-78l133 258q-81 55 -127.5 148t-46.5 206q0 183 116 305.5t280 122.5q86 0 161 -34l115 219h78l-131 -256q80 -60 126 -152t46 -205q0 -184 -115.5 -307t-279.5 -123q-86 0 -162 39z" />
    <glyph glyph-name="ugrave" unicode="&#xf9;" 
d="M963 47v-47h-43q-94 0 -224 -14v166h-4q-40 -85 -118.5 -133t-178.5 -48q-72 0 -122 16.5t-74.5 47t-34.5 62.5t-10 73v594h-111v47h41q147 0 229 20v-643q0 -151 125 -151q107 0 177.5 78t70.5 190v459h-117v47h47q148 0 230 20v-784h117zM664 897h-72l-273 166
q-32 20 -42.5 27t-29.5 22.5t-25.5 29t-6.5 29.5q0 31 20.5 50.5t51.5 19.5q9 0 17 -2.5t16 -9t12.5 -10t14 -13.5t11.5 -12z" />
    <glyph glyph-name="uacute" unicode="&#xfa;" 
d="M963 47v-47h-43q-94 0 -224 -14v166h-4q-40 -85 -118.5 -133t-178.5 -48q-72 0 -122 16.5t-74.5 47t-34.5 62.5t-10 73v594h-111v47h41q147 0 229 20v-643q0 -151 125 -151q107 0 177.5 78t70.5 190v459h-117v47h47q148 0 230 20v-784h117zM360 897l306 297q2 2 11.5 12
t14 13.5t12.5 10t16 9t17 2.5q31 0 51.5 -19.5t20.5 -50.5q0 -16 -6.5 -29.5t-25.5 -29t-29.5 -22.5t-42.5 -27l-273 -166h-72z" />
    <glyph glyph-name="ucircumflex" unicode="&#xfb;" 
d="M963 47v-47h-43q-94 0 -224 -14v166h-4q-40 -85 -118.5 -133t-178.5 -48q-72 0 -122 16.5t-74.5 47t-34.5 62.5t-10 73v594h-111v47h41q147 0 229 20v-643q0 -151 125 -151q107 0 177.5 78t70.5 190v459h-117v47h47q148 0 230 20v-784h117zM457 1237h114l248 -340h-65
l-240 215l-240 -215h-69z" />
    <glyph glyph-name="udieresis" unicode="&#xfc;" 
d="M963 47v-47h-43q-94 0 -224 -14v166h-4q-40 -85 -118.5 -133t-178.5 -48q-72 0 -122 16.5t-74.5 47t-34.5 62.5t-10 73v594h-111v47h41q147 0 229 20v-643q0 -151 125 -151q107 0 177.5 78t70.5 190v459h-117v47h47q148 0 230 20v-784h117zM311 934q-40 0 -67 27t-27 67
q0 41 26.5 69.5t67.5 28.5q39 0 68 -29.5t29 -68.5t-29 -66.5t-68 -27.5zM711 934q-40 0 -67.5 27t-27.5 67t27 69t68 29q39 0 67.5 -29.5t28.5 -68.5t-28.5 -66.5t-67.5 -27.5z" />
    <glyph glyph-name="yacute" unicode="&#xfd;" horiz-adv-x="909" 
d="M868 764h-102l-328 -901q-25 -68 -43 -111t-42.5 -88.5t-48.5 -71t-57 -41.5t-71 -16q-34 0 -66 27.5t-32 62.5q0 40 24.5 64t59.5 24q28 0 47.5 -11.5t27.5 -26t16 -26t15 -11.5q21 0 37 29t41 95q49 120 88 238l-313 764h-96v47h393v-47h-131l227 -551l195 551h-131v47
h290v-47zM365 897l305 297q2 2 11.5 12t14 13.5t12.5 10t16 9t17 2.5q31 0 51.5 -19.5t20.5 -50.5q0 -16 -6.5 -29.5t-25.5 -29t-29.5 -22.5t-42.5 -27l-273 -166h-71z" />
    <glyph glyph-name="thorn" unicode="&#xfe;" 
d="M166 -416v1780h-117v47h47q130 0 230 19v-742h4q31 58 96.5 100.5t134.5 42.5q68 0 134.5 -25t126.5 -75.5t97 -140t37 -205.5q0 -77 -25.5 -149.5t-73 -131.5t-123 -95t-167.5 -36q-157 0 -237 138h-4v-527h139v-47h-420v47h121zM334 553q-8 -54 -8 -188q0 -99 8 -142
t33 -90q25 -49 82.5 -84t103.5 -35q25 0 39.5 1t38 5.5t37.5 14.5t32 27.5t29 45.5t21.5 66.5t15 93.5t4.5 123q0 219 -48 306t-163 87q-15 0 -35.5 -4.5t-51 -20t-57 -39t-49.5 -67.5t-32 -100z" />
    <glyph glyph-name="ydieresis" unicode="&#xff;" horiz-adv-x="909" 
d="M868 764h-102l-328 -901q-25 -68 -43 -111t-42.5 -88.5t-48.5 -71t-57 -41.5t-71 -16q-34 0 -66 27.5t-32 62.5q0 40 24.5 64t59.5 24q28 0 47.5 -11.5t27.5 -26t16 -26t15 -11.5q21 0 37 29t41 95q49 120 88 238l-313 764h-96v47h393v-47h-131l227 -551l195 551h-131v47
h290v-47zM295 934q-40 0 -67 27t-27 67q0 41 26.5 69.5t67.5 28.5q39 0 67.5 -29.5t28.5 -68.5t-28.5 -66.5t-67.5 -27.5zM694 934q-40 0 -67 27t-27 67q0 41 26.5 69.5t67.5 28.5q39 0 68 -29.5t29 -68.5t-29 -66.5t-68 -27.5z" />
    <glyph glyph-name="dotlessi" unicode="&#x131;" horiz-adv-x="569" 
d="M483 0h-417v47h137v717h-137v47h67q147 0 229 20v-784h121v-47z" />
    <glyph glyph-name="Lslash" unicode="&#x141;" horiz-adv-x="1138" 
d="M629 1321h-189v-555l314 295v-105l-314 -294v-615h367q48 0 90 22.5t71 57.5t52.5 81.5t37 89t21.5 85.5h39l-22 -383h-1022v47h168v430l-197 -184v104l197 185v739h-168v47h555v-47z" />
    <glyph glyph-name="lslash" unicode="&#x142;" horiz-adv-x="569" 
d="M516 0h-475v47h158v506l-189 -199v97l189 198v715h-158v47h88q129 0 229 19v-615l185 195v-97l-185 -194v-672h158v-47z" />
    <glyph glyph-name="OE" unicode="&#x152;" horiz-adv-x="1933" 
d="M1786 1034h-49q-11 76 -35 129.5t-53.5 84t-75 47.5t-87 21.5t-100.5 4.5h-264v-590h58.5t49 1.5t43.5 4.5t35 8.5t31 13.5t24 20t21 28t15.5 37t13.5 47t10 59h45v-518h-45q-4 66 -18 110t-35 71.5t-59 41.5t-80 19t-109 6v-633h246q74 0 122 3.5t94 16t74 34.5t53 60.5
t41.5 91.5t29.5 130h55l-29 -383h-1181q-149 0 -271.5 87t-192 240.5t-69.5 342.5q0 147 37.5 269t96 199.5t133.5 131t146.5 76t139.5 22.5h1139v-334zM928 467v430q0 84 -6 143.5t-23.5 115.5t-48.5 90t-83 54.5t-124 20.5q-67 0 -135.5 -30t-104.5 -87q-5 -8 -11.5 -20
t-19 -50t-21.5 -86t-16 -131.5t-7 -183.5q0 -95 2 -163.5t7.5 -139t15.5 -119.5t26.5 -95t39.5 -75t55 -51.5t74 -32.5t95 -10q72 0 123.5 20.5t82.5 54.5t49 90t24 115t6 140z" />
    <glyph glyph-name="oe" unicode="&#x153;" horiz-adv-x="1478" 
d="M1356 254h45q-30 -139 -126 -210t-235 -71q-78 0 -157.5 34.5t-132.5 98.5q-53 -66 -131 -99.5t-160 -33.5q-80 0 -152.5 32.5t-126 89t-85.5 137t-32 171.5q0 183 116 305.5t280 122.5q164 -3 291 -137q75 69 139.5 102.5t144.5 34.5q159 0 263.5 -99.5t105.5 -264.5
h-580v-84q0 -68 4.5 -117t19.5 -99.5t41.5 -81.5t73 -51t111.5 -20q90 0 176 70.5t107 169.5zM459 791q-34 0 -62 -8t-48 -20.5t-36 -34.5t-26.5 -42t-17.5 -51.5t-10.5 -54.5t-5.5 -60t-2.5 -58.5t-0.5 -58.5t0.5 -59t2.5 -59t5.5 -60t10.5 -54.5t17.5 -51.5t26.5 -42
t36 -34.5t48 -20.5t62 -8t62 8t48 20.5t36 34.5t26.5 42t17.5 51.5t10.5 54.5t5.5 60t2.5 59t0.5 59t-0.5 58.5t-2.5 58.5t-5.5 60t-10.5 54.5t-17.5 51.5t-26.5 42t-36 34.5t-48 20.5t-62 8zM825 526h392v70q0 103 -52 149t-137 46q-43 0 -79 -17.5t-57 -42.5t-32 -42.5
t-14 -26.5q-18 -55 -21 -136z" />
    <glyph glyph-name="Scaron" unicode="&#x160;" 
d="M197 84l-88 -90h-29v352h39q43 -146 147 -238t248 -92q138 0 241 83.5t103 213.5q0 95 -36 144.5t-150 95.5q-26 10 -131 46t-192 67.5t-101 40.5q-84 53 -125 136.5t-41 176.5q0 122 84 233q111 146 317 146q64 0 148 -31t121 -59l77 59h29v-319h-41
q-36 134 -126.5 218.5t-221.5 84.5q-71 0 -137 -29.5t-110 -88t-44 -132.5q0 -54 26.5 -94t71.5 -65t103 -44t122.5 -36.5t129 -38t122.5 -53t103 -76t71.5 -113t26.5 -158.5q0 -210 -121 -332.5t-323 -122.5q-198 0 -313 115zM567 1434h-114l-248 340h65l240 -215l240 215
h69z" />
    <glyph glyph-name="scaron" unicode="&#x161;" horiz-adv-x="796" 
d="M592 811h35v-229h-45q-25 94 -80.5 149.5t-143.5 59.5q-47 1 -84 -12t-56.5 -31.5t-32 -42t-16 -39t-3.5 -25.5q0 -26 8 -41t39.5 -34t99.5 -37.5t183 -41.5q116 -24 164.5 -79t48.5 -154q0 -128 -84.5 -204.5t-210.5 -76.5q-66 0 -129.5 26.5t-106.5 74.5l-45 -74h-45
v270h47q31 -115 106 -185.5t185 -70.5q74 0 136.5 50.5t62.5 125.5q0 55 -68 89t-215 71q-114 28 -149 45q-89 42 -102 142q-3 20 -3 43q0 37 13 76.5t41.5 80.5t86 67.5t136.5 26.5q97 0 190 -75zM455 897h-115l-248 340h66l239 -215l240 215h70z" />
    <glyph glyph-name="Ydieresis" unicode="&#x178;" horiz-adv-x="1366" 
d="M762 707l328 614h-203v47h422v-47h-164l-357 -686v-588h183v-47h-561v47h180v588l-395 686h-152v47h553v-47h-180zM514 1470q-40 0 -67 27.5t-27 67.5q0 41 26.5 69.5t67.5 28.5q39 0 67.5 -29.5t28.5 -68.5t-28.5 -67t-67.5 -28zM913 1470q-40 0 -67 27.5t-27 67.5
q0 41 26.5 69.5t67.5 28.5q39 0 68 -29.5t29 -68.5t-29 -67t-68 -28z" />
    <glyph glyph-name="Zcaron" unicode="&#x17d;" horiz-adv-x="1138" 
d="M1049 1303l-793 -1256h379q177 0 252.5 70.5t109.5 267.5h56l-23 -385h-997v84l790 1237h-379q-51 0 -87 -5t-65.5 -20t-48 -33t-37.5 -55t-32 -73t-33 -99h-47l21 332h934v-65zM625 1434h-115l-248 340h66l239 -215l240 215h70z" />
    <glyph glyph-name="zcaron" unicode="&#x17e;" horiz-adv-x="796" 
d="M150 545h-48v266h615v-51l-475 -713h258q71 0 109.5 63t64.5 187h39v-297h-662v45l479 719h-182q-46 0 -72.5 -6t-53.5 -27t-44 -66.5t-28 -119.5zM455 897h-115l-248 340h66l239 -215l240 215h70z" />
    <glyph glyph-name="florin" unicode="&#x192;" 
d="M819 770h-235q0 -287 -4.5 -439t-20.5 -288q-13 -116 -35.5 -199t-62.5 -149.5t-103 -99.5t-151 -33q-58 0 -102 34.5t-44 96.5q0 34 22.5 61t55.5 27q37 0 57.5 -24t20.5 -62q0 -11 -4 -35t-4 -29q0 -26 45 -26q150 0 158 340q1 84 4.5 285t6 351.5t3.5 188.5h-221v49
h223q5 136 29 244.5t58 174t77.5 109t83 60t78.5 16.5q190 0 190 -141q0 -19 -23 -47.5t-55 -28.5q-30 0 -48.5 20.5t-20.5 51.5q0 14 1 29t2.5 34t2.5 29q-23 10 -47 10q-40 0 -71.5 -21t-49 -58t-29 -73t-16 -82t-5.5 -68.5t-1 -47.5v-211h235v-49z" />
    <glyph glyph-name="circumflex" unicode="&#x2c6;" horiz-adv-x="569" 
d="M229 1237h115l248 -340h-66l-239 215l-240 -215h-70z" />
    <glyph glyph-name="caron" unicode="&#x2c7;" horiz-adv-x="569" 
d="M340 897h-115l-248 340h66l240 -215l239 215h70z" />
    <glyph glyph-name="breve" unicode="&#x2d8;" horiz-adv-x="569" 
d="M0 1214h55q10 -96 73.5 -150t156.5 -54t156 54t73 150h55q-3 -149 -79 -234t-205 -85t-205.5 85t-79.5 234z" />
    <glyph glyph-name="dotaccent" unicode="&#x2d9;" horiz-adv-x="569" 
d="M285 934q-40 0 -67.5 27t-27.5 67t27 69t68 29q39 0 67.5 -29.5t28.5 -68.5t-28.5 -66.5t-67.5 -27.5z" />
    <glyph glyph-name="ring" unicode="&#x2da;" horiz-adv-x="569" 
d="M279 1237q-58 0 -98 -40t-40 -97q0 -58 39.5 -97.5t98.5 -39.5q57 0 97 39.5t40 97.5q0 57 -40 97t-97 40zM279 901q-84 0 -141.5 57.5t-57.5 141.5q0 83 58 140.5t141 57.5q82 0 140 -58t58 -140q0 -83 -58 -141t-140 -58z" />
    <glyph glyph-name="ogonek" unicode="&#x2db;" horiz-adv-x="569" 
d="M242 0h84q-62 -65 -62 -139q0 -38 20 -64t62 -26q56 0 78 100h63q-18 -100 -67.5 -152.5t-116.5 -52.5q-68 0 -118 41t-50 109q0 54 27.5 96t79.5 88z" />
    <glyph glyph-name="tilde" unicode="&#x2dc;" horiz-adv-x="569" 
d="M561 1155h60q-21 -88 -77 -148.5t-141 -60.5q-66 0 -151 47q-1 1 -14.5 7.5t-15.5 8t-14 7t-15.5 7t-13.5 5.5t-15.5 5t-13.5 3.5t-15 3t-14 0.5q-40 0 -71.5 -27.5t-39.5 -66.5h-55q16 89 73 145t144 56q45 0 137 -47q88 -47 133 -47q48 0 72 25t47 77z" />
    <glyph glyph-name="hungarumlaut" unicode="&#x2dd;" horiz-adv-x="569" 
d="M92 897l305 297q1 1 11.5 12t14 14t12.5 9.5t17 9t17 2.5q31 0 51.5 -19.5t20.5 -50.5q0 -29 -22.5 -50t-72.5 -52q-7 -4 -10 -6l-272 -166h-72zM440 897l305 297q1 1 11.5 12t14 14t12.5 9.5t17 9t17 2.5q31 0 51.5 -19.5t20.5 -50.5q0 -29 -22.5 -50t-72.5 -52
q-2 -1 -3.5 -2l-3 -2t-3.5 -2l-272 -166h-72z" />
    <glyph glyph-name="endash" unicode="&#x2013;" 
d="M1024 391h-1024v105h1024v-105z" />
    <glyph glyph-name="emdash" unicode="&#x2014;" horiz-adv-x="2048" 
d="M2048 391h-2048v105h2048v-105z" />
    <glyph glyph-name="quoteleft" unicode="&#x2018;" horiz-adv-x="454" 
d="M324 1366l16 -35q-102 -84 -145 -145.5t-43 -120.5q0 -25 4.5 -38.5t8.5 -16t11 -2.5q5 0 12.5 9t16 20.5t29.5 20.5t49 9q53 0 81.5 -30t28.5 -85q0 -51 -41 -87t-94 -36q-77 0 -124.5 51.5t-47.5 147.5t69.5 184t168.5 154z" />
    <glyph glyph-name="quoteright" unicode="&#x2019;" horiz-adv-x="454" 
d="M131 829l-16 35q102 84 145 145.5t43 120.5q0 58 -24 58q-5 0 -12.5 -9.5t-16 -20.5t-29.5 -20.5t-49 -9.5q-54 0 -82.5 30.5t-28.5 84.5q0 51 41.5 87t94.5 36q77 0 124.5 -51.5t47.5 -147.5t-69.5 -184t-168.5 -154z" />
    <glyph glyph-name="quotesinglbase" unicode="&#x201a;" horiz-adv-x="454" 
d="M131 -330l-16 35q102 84 145 145.5t43 120.5q0 58 -24 58q-4 0 -7.5 -4t-10 -12t-11.5 -13q-27 -31 -78 -31q-54 0 -82.5 30.5t-28.5 84.5q0 51 41.5 87t94.5 36q77 0 124.5 -51.5t47.5 -147.5t-69.5 -184t-168.5 -154z" />
    <glyph glyph-name="quotedblleft" unicode="&#x201c;" horiz-adv-x="909" 
d="M778 1366l17 -35q-102 -84 -145.5 -145.5t-43.5 -120.5q0 -57 25 -57q5 0 12 9t16 20.5t29.5 20.5t48.5 9q54 0 82.5 -30.5t28.5 -84.5q0 -51 -41 -87t-94 -36q-77 0 -124.5 51.5t-47.5 147.5t69 184t168 154zM324 1366l16 -35q-102 -84 -145 -145.5t-43 -120.5
q0 -25 4.5 -38.5t8.5 -16t11 -2.5q5 0 12.5 9t16 20.5t29.5 20.5t49 9q53 0 81.5 -30t28.5 -85q0 -51 -41 -87t-94 -36q-77 0 -124.5 51.5t-47.5 147.5t69.5 184t168.5 154z" />
    <glyph glyph-name="quotedblright" unicode="&#x201d;" horiz-adv-x="909" 
d="M131 829l-16 35q102 84 145 145.5t43 120.5q0 58 -24 58q-5 0 -12.5 -9.5t-16 -20.5t-29.5 -20.5t-49 -9.5q-54 0 -82.5 30.5t-28.5 84.5q0 51 41.5 87t94.5 36q77 0 124.5 -51.5t47.5 -147.5t-69.5 -184t-168.5 -154zM586 829l-17 35q102 84 145.5 145.5t43.5 120.5
q0 58 -25 58q-5 0 -15 -15t-32.5 -30t-58.5 -15q-54 0 -82.5 30.5t-28.5 84.5q0 51 41 87t94 36q77 0 124.5 -51.5t47.5 -147.5t-69 -184t-168 -154z" />
    <glyph glyph-name="quotedblbase" unicode="&#x201e;" horiz-adv-x="909" 
d="M131 -330l-16 35q102 84 145 145.5t43 120.5q0 58 -24 58q-4 0 -7.5 -4t-10 -12t-11.5 -13q-27 -31 -78 -31q-54 0 -82.5 30.5t-28.5 84.5q0 51 41.5 87t94.5 36q77 0 124.5 -51.5t47.5 -147.5t-69.5 -184t-168.5 -154zM586 -330l-17 35q102 84 145.5 145.5t43.5 120.5
q0 58 -25 58q-4 0 -7.5 -4t-9.5 -12t-11 -13q-27 -31 -78 -31q-54 0 -82.5 30.5t-28.5 84.5q0 51 41 87t94 36q77 0 124.5 -51.5t47.5 -147.5t-69 -184t-168 -154z" />
    <glyph glyph-name="dagger" unicode="&#x2020;" 
d="M532 -326h-40q0 145 -2 228t-9.5 203t-27 216t-50.5 179q52 67 69 160t17 214q-55 0 -100.5 -11t-69.5 -23.5t-55.5 -23.5t-62.5 -11q-8 0 -19.5 3.5t-27.5 12t-26.5 28t-10.5 46.5t10.5 46.5t26.5 28t27.5 12t19.5 3.5q38 0 76.5 -17.5t90 -35t121.5 -17.5
q0 81 -11.5 143.5t-25 91t-25 56.5t-11.5 49q0 58 29 85.5t67 27.5t67 -27.5t29 -85.5q0 -21 -11.5 -49t-25 -56.5t-25 -91t-11.5 -143.5q70 0 121.5 17.5t90 35t76.5 17.5q8 0 19.5 -3.5t27.5 -12t26.5 -28t10.5 -46.5t-10.5 -46.5t-26.5 -28t-27.5 -12t-19.5 -3.5
q-31 0 -62.5 11t-55.5 23.5t-69.5 23.5t-100.5 11q0 -121 17 -214t69 -160q-31 -83 -50.5 -179t-27 -216t-9.5 -203t-2 -228z" />
    <glyph glyph-name="daggerdbl" unicode="&#x2021;" 
d="M403 514q52 58 69 148.5t17 211.5q-55 0 -100.5 -11t-69.5 -23.5t-55.5 -23.5t-62.5 -11q-8 0 -19.5 3.5t-27.5 12t-26.5 28t-10.5 46.5t10.5 46.5t26.5 28t27.5 12t19.5 3.5q38 0 76.5 -17.5t90 -35t121.5 -17.5q0 81 -11.5 143.5t-25 91t-25 56.5t-11.5 49
q0 58 29 85.5t67 27.5t67 -27.5t29 -85.5q0 -21 -11.5 -49t-25 -56.5t-25 -91t-11.5 -143.5q70 0 121.5 17.5t90 35t76.5 17.5q8 0 19.5 -3.5t27.5 -12t26.5 -28t10.5 -46.5t-10.5 -46.5t-26.5 -28t-27.5 -12t-19.5 -3.5q-31 0 -62.5 11t-55.5 23.5t-69.5 23.5t-100.5 11
q0 -121 17 -211.5t69 -148.5q-52 -58 -69 -148.5t-17 -211.5q55 0 100.5 11t69.5 23.5t55.5 23.5t62.5 11q8 0 19.5 -3.5t27.5 -12t26.5 -28t10.5 -46.5t-10.5 -46.5t-26.5 -28t-27.5 -12t-19.5 -3.5q-38 0 -76.5 17.5t-90 35t-121.5 17.5q0 -81 11.5 -143.5t25 -91
t25 -56.5t11.5 -49q0 -57 -29 -84t-67 -27t-67 27t-29 84q0 21 11.5 49t25 56.5t25 91t11.5 143.5q-70 0 -121.5 -17.5t-90 -35t-76.5 -17.5q-8 0 -19.5 3.5t-27.5 12t-26.5 28t-10.5 46.5t10.5 46.5t26.5 28t27.5 12t19.5 3.5q38 0 76.5 -17t90 -34.5t121.5 -17.5
q0 121 -17 211.5t-69 148.5z" />
    <glyph glyph-name="bullet" unicode="&#x2022;" 
d="M178 670q0 138 98 236t236 98t236 -98t98 -236t-98 -236t-236 -98t-236 98t-98 236z" />
    <glyph glyph-name="ellipsis" unicode="&#x2026;" horiz-adv-x="2048" 
d="M338 -23q-51 0 -84 33t-33 84q0 45 36 79t81 34q46 0 85.5 -33.5t39.5 -79.5q0 -51 -37 -84t-88 -33zM1020 -23q-51 0 -84 33t-33 84q0 45 36 79t81 34q46 0 85.5 -33.5t39.5 -79.5q0 -51 -37 -84t-88 -33zM1702 -23q-51 0 -84 33t-33 84q0 45 36 79t81 34
q46 0 85.5 -33.5t39.5 -79.5q0 -51 -37 -84t-88 -33z" />
    <glyph glyph-name="perthousand" unicode="&#x2030;" horiz-adv-x="2048" 
d="M1034 1376h90l-802 -1431h-105l711 1255l-4 4q-112 -51 -189 -51q-49 0 -90 8q4 -28 2 -55q-6 -84 -39 -171t-83.5 -159.5t-123 -119t-149.5 -46.5q-70 0 -120.5 24.5t-74.5 64t-34.5 77t-10.5 74.5q0 100 64.5 217t167.5 199t202 82q61 0 115 -32.5t72 -88.5
q28 -21 84 -21q97 0 178.5 43.5t138.5 126.5zM469 1276q-21 1 -40 -7t-39.5 -29t-29.5 -32.5t-32 -40.5q-63 -85 -108.5 -200t-45.5 -187q0 -110 115 -110q68 0 141 74t119.5 181t46.5 199q0 37 -4 60q-88 34 -123 92zM1114 715q96 0 146.5 -64t50.5 -166q0 -71 -31 -158.5
t-82 -167t-128.5 -133t-160.5 -53.5q-111 0 -173 63.5t-62 178.5q0 104 64 221t168.5 198t207.5 81zM1139 645q-45 0 -92 -43.5t-83.5 -106.5t-66 -131.5t-45.5 -122.5t-16 -75q0 -62 24.5 -97.5t85.5 -35.5q67 0 141 71.5t123.5 180.5t49.5 209q0 151 -121 151zM1839 715
q96 0 146.5 -64t50.5 -166q0 -71 -31 -158.5t-82 -167t-128.5 -133t-160.5 -53.5q-111 0 -173 63.5t-62 178.5q0 104 64 221t168.5 198t207.5 81zM1864 645q-45 0 -92 -43.5t-83.5 -106.5t-66 -131.5t-45.5 -122.5t-16 -75q0 -62 24.5 -97.5t85.5 -35.5q67 0 141 71.5
t123.5 180.5t49.5 209q0 151 -121 151z" />
    <glyph glyph-name="guilsinglleft" unicode="&#x2039;" horiz-adv-x="681" 
d="M313 442q60 -60 134.5 -168t74.5 -124q0 -3 -3.5 -11t-8.5 -8q-14 0 -59.5 42.5t-114.5 110t-117 105.5q-10 8 -21.5 17t-16.5 13t-10.5 8.5t-7 7.5t-1.5 7t2 7t6.5 7.5t10 8.5t17 13t21.5 18q48 38 117 105.5t114.5 110t59.5 42.5q5 0 8.5 -8t3.5 -11
q0 -16 -74.5 -124.5t-134.5 -168.5z" />
    <glyph glyph-name="guilsinglright" unicode="&#x203a;" horiz-adv-x="681" 
d="M371 442q-60 60 -134.5 168.5t-74.5 124.5q0 3 3.5 11t8.5 8q14 0 59.5 -42.5t114.5 -110t117 -105.5q7 -6 16 -12.5t13.5 -10.5t10 -8.5t8 -7t5 -5.5t3.5 -5t1 -5q0 -4 -2 -7t-6.5 -7t-10.5 -8.5t-16.5 -13t-21.5 -17.5q-48 -38 -117 -105.5t-114.5 -110t-59.5 -42.5
q-5 0 -8.5 8t-3.5 11q0 16 74.5 124t134.5 168z" />
    <glyph glyph-name="fraction" unicode="&#x2044;" horiz-adv-x="342" 
d="M-342 -27l924 1375h102l-924 -1375h-102z" />
    <glyph glyph-name="fraction" unicode="&#x2215;" horiz-adv-x="342" 
d="M-342 -27l924 1375h102l-924 -1375h-102z" />
    <glyph glyph-name="Euro" unicode="&#x20ac;" 
d="M879 817l-17 -49h-497q-3 -59 -3 -106q0 -60 3 -119h430l-17 -49h-413q4 -87 13 -154t28.5 -129.5t49.5 -102.5t76.5 -64t108.5 -24q74 0 137 50t103 126.5t61 170.5h37v-367h-43l-43 88q-107 -115 -252 -115q-186 0 -313.5 143t-163.5 378h-133l16 49h111q-6 58 -6 116
q0 57 6 109h-119l16 49h109q37 246 174.5 388.5t302.5 142.5q124 0 242 -109l53 61h25v-348h-37q-27 159 -96.5 253.5t-186.5 94.5q-248 0 -274 -483h512z" />
    <glyph glyph-name="trademark" unicode="&#x2122;" horiz-adv-x="2027" 
d="M492 1303v-629q0 -72 7 -86q8 -18 50 -24q11 -2 39 -5v-39h-334v39q26 3 36.5 5t24.5 3.5t18 8t9.5 9t6 16.5t1 21t0.5 31v21v629h-98q-59 0 -91.5 -38.5t-47.5 -103.5h-39v180h694v-180h-39q-34 142 -139 142h-98zM1368 514l-311 631h-4v-455q0 -68 21 -96t85 -35v-39
h-266v39q65 7 86.5 35t21.5 96v510q-19 45 -58.5 74t-82.5 29v38h252l315 -620l326 620h201v-38q-63 -3 -87 -31.5t-24 -85.5v-512q0 -72 4 -83q6 -19 42 -25q13 -3 50 -7v-39h-333v39q73 8 85 19.5t11 70.5v25v467h-4l-312 -627h-18z" />
    <glyph glyph-name="minus" unicode="&#x2212;" horiz-adv-x="1126" 
d="M1038 438h-950v119h950v-119z" />
    <glyph glyph-name="fi" unicode="&#xfb01;" 
d="M455 0h-443v47h158v717h-158v47h158v100q0 241 108.5 372.5t280.5 131.5q40 0 80.5 -8t81 -25.5t65.5 -51t25 -77.5q0 -32 -26.5 -59t-57.5 -27q-41 0 -67.5 28.5t-26.5 70.5q0 15 9.5 30.5t19.5 24.5t10 10q0 19 -41.5 32t-75.5 13q-225 0 -225 -418v-147h301
q147 0 229 20v-784h121v-47h-403v47h122v717h-370v-717h125v-47z" />
    <glyph glyph-name="fl" unicode="&#xfb02;" 
d="M330 811h370v385q-21 4 -41 33.5t-20 52.5q0 29 15 52l14 22q0 12 -37.5 19t-75.5 7q-24 0 -50.5 -8.5t-58.5 -33t-57 -62t-42 -103.5t-17 -149v-215zM860 1413v-1366h121v-47h-403v47h122v717h-370v-717h125v-47h-443v47h158v717h-158v47h158v107q0 241 108.5 372
t280.5 131q55 0 111 -18q13 -3 29 -8t26.5 -8t17.5 -3q18 0 37.5 4.5t43 13t36.5 11.5z" />
    </font>
</defs>
</svg>
